<svg id="svg" version="1.1" width="2400" height="1597" xmlns="http://www.w3.org/2000/svg" xmlns:xlink="http://www.w3.org/1999/xlink" style="display: block;"><g id="svgg"><path id="path0" d="M0.000 133.083 L 0.000 266.167 200.000 266.167 L 400.000 266.167 400.000 133.083 L 400.000 0.000 200.000 0.000 L 0.000 0.000 0.000 133.083 M348.417 131.167 L 348.417 247.250 193.458 247.292 L 38.500 247.334 38.500 131.278 C 38.500 67.447,38.550 15.172,38.611 15.111 C 38.672 15.050,108.404 15.019,193.570 15.042 L 348.417 15.083 348.417 131.167 " stroke="none" fill="#0e0e0e" fill-rule="evenodd"></path><path id="path1" d="M38.776 15.125 C 38.733 15.194,108.329 15.231,193.433 15.208 L 348.167 15.166 348.167 131.167 L 348.167 247.167 193.417 247.125 C 108.304 247.102,38.667 247.140,38.667 247.208 C 38.667 247.277,108.323 247.315,193.458 247.292 L 348.250 247.250 348.250 131.167 L 348.250 15.083 193.552 15.042 C 108.467 15.019,38.818 15.056,38.776 15.125 M192.250 94.809 C 191.658 95.173,192.388 94.467,177.152 109.417 C 174.537 111.983,171.126 115.321,169.573 116.834 C 156.400 129.667,156.000 130.089,156.000 131.169 C 156.000 132.215,156.250 132.540,159.442 135.639 C 161.078 137.228,163.992 140.078,165.918 141.972 C 167.844 143.867,171.108 147.067,173.172 149.083 C 175.237 151.100,180.149 155.913,184.088 159.778 C 192.515 168.047,192.269 167.833,193.367 167.833 C 194.770 167.833,194.083 168.423,203.825 158.852 C 208.175 154.579,213.423 149.433,215.488 147.417 C 217.553 145.400,220.819 142.201,222.746 140.307 C 224.673 138.414,227.200 135.939,228.362 134.807 C 231.485 131.764,231.725 130.844,229.863 129.046 C 229.526 128.720,226.148 125.407,222.357 121.685 C 218.567 117.962,215.407 114.879,215.337 114.833 C 215.267 114.787,211.618 111.222,207.229 106.910 C 196.394 96.265,195.032 94.949,194.613 94.714 C 194.062 94.407,192.823 94.456,192.250 94.809 M194.383 94.935 C 194.920 95.205,195.219 95.478,198.590 98.781 C 199.602 99.772,202.602 102.707,205.257 105.303 C 207.911 107.899,212.708 112.601,215.917 115.752 C 221.374 121.112,226.726 126.331,226.768 126.333 C 226.930 126.339,230.332 129.937,230.542 130.324 C 231.283 131.688,231.269 131.704,221.052 141.614 C 219.144 143.464,215.277 147.251,212.457 150.030 C 209.638 152.809,205.700 156.670,203.707 158.609 C 201.714 160.548,198.926 163.267,197.512 164.653 C 193.727 168.361,193.302 168.459,190.992 166.167 C 190.391 165.571,187.616 162.857,184.825 160.137 C 182.034 157.416,178.276 153.741,176.475 151.970 C 166.128 141.797,158.136 134.000,158.056 134.000 C 157.940 134.000,156.740 132.601,156.458 132.138 C 155.622 130.763,155.660 130.714,163.273 123.356 C 164.635 122.039,168.975 117.791,172.917 113.915 C 176.858 110.039,181.652 105.342,183.568 103.476 C 185.485 101.610,188.185 98.971,189.568 97.611 C 192.606 94.624,193.156 94.318,194.383 94.935 M190.958 102.486 C 188.409 105.022,188.322 105.268,190.042 105.079 C 191.629 104.905,195.642 104.903,196.955 105.076 C 198.666 105.301,198.558 105.012,195.992 102.499 C 193.280 99.842,193.614 99.843,190.958 102.486 M195.651 102.544 C 197.976 104.805,198.030 104.917,196.730 104.755 C 195.501 104.601,191.509 104.599,190.292 104.752 C 189.591 104.839,189.333 104.818,189.333 104.672 C 189.333 104.444,193.359 100.478,193.526 100.542 C 193.586 100.565,194.542 101.466,195.651 102.544 M190.490 109.399 C 190.443 109.446,189.995 109.557,189.494 109.647 C 188.116 109.893,187.101 110.168,186.925 110.343 C 186.838 110.429,186.631 110.500,186.464 110.500 C 186.298 110.500,186.032 110.565,185.873 110.643 C 185.714 110.722,184.770 111.185,183.775 111.672 C 182.780 112.159,181.879 112.638,181.772 112.737 C 181.665 112.836,181.316 113.061,180.997 113.237 C 180.678 113.414,180.379 113.603,180.333 113.658 C 180.287 113.713,180.039 113.892,179.781 114.057 C 179.282 114.374,178.788 114.757,178.348 115.167 C 178.201 115.304,177.856 115.588,177.582 115.796 C 176.501 116.620,168.833 124.240,168.833 124.490 C 168.833 124.778,171.812 127.833,172.092 127.833 C 172.185 127.833,173.127 126.990,174.184 125.958 C 179.917 120.369,181.313 119.061,182.426 118.238 C 183.099 117.740,183.698 117.333,183.757 117.333 C 183.817 117.333,184.064 117.194,184.308 117.024 C 184.551 116.854,184.956 116.665,185.208 116.604 C 185.460 116.544,185.667 116.420,185.667 116.330 C 185.667 116.240,185.777 116.167,185.912 116.167 C 186.046 116.167,186.721 115.982,187.411 115.757 C 191.541 114.409,197.060 114.955,201.250 117.127 C 201.708 117.364,202.251 117.639,202.457 117.738 C 202.663 117.836,202.831 117.973,202.832 118.042 C 202.833 118.110,202.909 118.167,203.002 118.167 C 203.094 118.167,203.713 118.574,204.377 119.071 C 206.957 121.004,207.461 121.478,218.545 132.370 C 220.593 134.383,221.373 135.008,221.585 134.807 C 223.485 132.998,225.000 131.384,225.000 131.170 C 225.000 131.016,223.894 129.817,222.542 128.504 C 221.190 127.192,218.316 124.386,216.155 122.268 C 211.481 117.686,209.894 116.187,209.047 115.554 C 208.700 115.295,208.342 114.998,208.250 114.893 C 208.000 114.607,205.838 113.126,205.125 112.752 C 204.781 112.572,204.500 112.366,204.500 112.295 C 204.500 112.225,204.354 112.167,204.177 112.167 C 203.999 112.167,203.807 112.091,203.750 112.000 C 203.693 111.908,203.295 111.674,202.865 111.480 C 202.435 111.286,201.788 110.986,201.427 110.814 C 201.066 110.641,200.650 110.500,200.502 110.500 C 200.354 110.500,200.162 110.435,200.075 110.356 C 199.900 110.197,198.859 109.895,197.583 109.633 C 196.706 109.453,190.636 109.253,190.490 109.399 M196.280 109.681 C 200.207 110.224,204.027 111.986,208.165 115.164 C 209.735 116.370,211.268 117.805,216.913 123.355 C 219.024 125.430,221.631 127.972,222.708 129.004 C 223.785 130.036,224.667 131.003,224.667 131.152 C 224.667 131.541,221.604 134.546,221.279 134.475 C 221.134 134.443,218.330 131.787,215.049 128.574 C 205.790 119.506,205.042 118.872,201.149 116.796 C 196.378 114.252,189.764 114.063,185.141 116.338 C 182.509 117.633,181.653 118.327,176.450 123.382 C 174.166 125.601,172.211 127.437,172.107 127.462 C 172.002 127.487,171.242 126.825,170.417 125.990 L 168.917 124.471 172.833 120.629 C 182.269 111.371,188.265 108.571,196.280 109.681 M190.003 119.605 C 189.409 119.737,188.850 119.917,188.761 120.005 C 188.673 120.094,188.426 120.167,188.213 120.167 C 188.001 120.167,187.547 120.338,187.205 120.546 C 186.863 120.755,186.302 121.072,185.958 121.251 C 185.615 121.430,185.333 121.634,185.333 121.705 C 185.333 121.775,185.259 121.833,185.168 121.833 C 184.935 121.833,184.416 122.292,181.958 124.667 C 176.147 130.282,175.495 130.959,175.608 131.253 C 175.777 131.693,182.178 137.926,183.187 138.633 C 183.394 138.778,183.690 139.024,183.846 139.179 C 184.750 140.083,187.556 141.608,189.667 142.342 C 191.701 143.050,195.088 143.064,197.333 142.375 C 199.813 141.614,201.126 140.690,204.727 137.171 C 210.350 131.676,210.500 131.518,210.500 131.109 C 210.500 130.629,204.969 125.140,202.833 123.501 C 202.421 123.184,202.046 122.885,202.000 122.837 C 201.815 122.640,200.682 121.833,200.591 121.833 C 200.537 121.833,200.196 121.646,199.833 121.417 C 199.470 121.188,199.059 121.000,198.920 121.000 C 198.781 121.000,198.667 120.931,198.667 120.847 C 198.667 120.762,198.443 120.644,198.169 120.584 C 197.895 120.524,197.628 120.405,197.575 120.321 C 197.523 120.236,197.312 120.167,197.107 120.167 C 196.901 120.167,196.662 120.097,196.575 120.013 C 196.015 119.469,191.802 119.208,190.003 119.605 M196.083 120.074 C 196.633 120.231,197.479 120.541,197.963 120.763 C 198.447 120.985,198.885 121.167,198.937 121.167 C 199.660 121.167,203.283 124.097,207.072 127.745 C 210.555 131.100,210.574 131.127,209.875 131.773 C 209.623 132.006,207.762 133.830,205.740 135.826 C 200.134 141.358,198.581 142.293,194.489 142.598 C 189.253 142.988,185.845 141.133,178.458 133.871 C 175.389 130.854,175.527 131.254,177.042 129.783 C 177.706 129.137,179.600 127.290,181.250 125.677 C 185.270 121.749,186.849 120.656,189.308 120.094 C 189.918 119.955,190.567 119.806,190.750 119.763 C 191.494 119.587,195.117 119.798,196.083 120.074 M191.833 124.059 C 185.621 125.400,184.106 133.433,189.380 137.065 C 193.833 140.132,200.144 137.258,200.776 131.875 C 200.909 130.746,200.640 130.474,200.066 131.157 C 198.540 132.971,195.248 132.878,193.343 130.969 C 191.711 129.334,191.667 126.368,193.252 124.831 C 194.277 123.838,193.874 123.619,191.833 124.059 M193.141 124.542 C 192.480 125.101,191.678 126.905,191.678 127.833 C 191.678 129.347,193.539 132.167,194.539 132.167 C 194.664 132.167,194.861 132.260,194.975 132.375 C 195.115 132.514,195.743 132.583,196.870 132.583 C 198.070 132.583,198.576 132.523,198.625 132.375 C 198.663 132.260,198.833 132.167,199.002 132.167 C 199.171 132.167,199.574 131.917,199.898 131.612 C 200.221 131.307,200.518 131.139,200.556 131.239 C 200.751 131.746,199.867 134.637,199.466 134.806 C 199.393 134.836,199.333 134.938,199.333 135.032 C 199.333 135.376,197.394 137.011,196.667 137.280 C 196.254 137.433,195.811 137.638,195.683 137.737 C 195.164 138.135,191.673 137.949,190.637 137.468 C 189.677 137.023,188.185 136.013,188.173 135.800 C 188.170 135.736,187.998 135.500,187.792 135.275 C 184.350 131.521,187.632 124.302,192.833 124.185 L 193.583 124.168 193.141 124.542 M163.458 129.456 C 162.565 130.354,161.833 131.141,161.833 131.205 C 161.833 131.464,176.124 145.297,177.748 146.610 C 178.297 147.054,178.897 147.552,179.081 147.717 C 179.265 147.883,179.791 148.256,180.249 148.548 C 180.708 148.839,181.108 149.135,181.139 149.205 C 181.169 149.276,181.274 149.333,181.371 149.333 C 181.468 149.333,182.022 149.633,182.603 150.000 C 183.183 150.367,183.773 150.667,183.913 150.667 C 184.052 150.667,184.167 150.742,184.167 150.833 C 184.167 150.925,184.249 151.000,184.350 151.000 C 184.520 151.000,185.421 151.359,186.005 151.659 C 186.146 151.732,186.501 151.844,186.795 151.908 C 187.089 151.973,187.372 152.095,187.425 152.179 C 187.477 152.264,187.765 152.333,188.065 152.333 C 188.366 152.333,188.667 152.390,188.735 152.458 C 189.520 153.249,196.550 153.270,198.039 152.486 C 198.199 152.402,198.496 152.333,198.700 152.333 C 199.146 152.333,200.372 151.919,201.859 151.267 C 202.193 151.120,202.549 151.000,202.650 151.000 C 202.751 151.000,202.833 150.925,202.833 150.833 C 202.833 150.742,202.947 150.667,203.087 150.667 C 203.312 150.667,203.925 150.346,204.923 149.707 C 205.103 149.592,205.362 149.448,205.500 149.386 C 205.637 149.325,205.787 149.229,205.833 149.173 C 205.879 149.118,206.292 148.833,206.750 148.541 C 207.208 148.249,207.780 147.839,208.021 147.630 C 208.262 147.421,208.823 146.950,209.268 146.583 C 210.558 145.520,211.962 144.226,213.692 142.505 C 214.577 141.625,215.871 140.369,216.567 139.714 C 217.264 139.059,217.833 138.387,217.832 138.220 C 217.831 137.839,214.476 134.500,214.095 134.500 C 213.940 134.500,212.075 136.215,209.949 138.312 C 205.938 142.267,204.582 143.549,203.953 143.978 C 203.750 144.117,203.546 144.273,203.500 144.324 C 203.274 144.576,200.545 145.965,199.583 146.318 C 196.340 147.507,190.827 147.504,187.583 146.311 C 185.894 145.690,184.142 144.813,183.053 144.042 C 182.761 143.836,182.442 143.667,182.344 143.667 C 182.247 143.667,182.167 143.608,182.167 143.536 C 182.167 143.464,181.940 143.271,181.662 143.107 C 181.385 142.943,180.987 142.646,180.777 142.446 C 180.568 142.247,180.221 141.971,180.005 141.833 C 179.540 141.538,178.635 140.668,171.244 133.417 C 168.161 130.392,165.513 127.896,165.361 127.870 C 165.194 127.842,164.434 128.475,163.458 129.456 M169.734 132.296 C 178.694 141.142,179.991 142.333,182.417 143.952 C 186.172 146.457,189.429 147.500,193.500 147.500 C 199.738 147.500,202.343 146.131,209.597 139.042 C 211.965 136.727,213.990 134.833,214.096 134.833 C 214.413 134.833,217.500 137.853,217.500 138.164 C 217.500 138.669,210.468 145.411,207.833 147.431 C 197.915 155.035,186.991 154.502,177.333 145.941 C 173.961 142.951,162.333 131.511,162.333 131.182 C 162.333 130.857,164.992 128.167,165.313 128.167 C 165.444 128.167,167.433 130.025,169.734 132.296 M195.750 157.304 C 193.989 157.505,193.255 157.515,191.826 157.359 C 189.124 157.063,188.833 157.084,188.833 157.575 C 188.833 157.800,188.950 158.049,189.093 158.129 C 189.236 158.209,190.206 159.113,191.249 160.137 C 193.608 162.455,193.337 162.469,195.993 159.886 C 198.922 157.037,198.913 156.944,195.750 157.304 M193.500 157.583 C 195.104 157.583,196.698 157.532,197.042 157.469 C 197.558 157.374,197.667 157.402,197.667 157.629 C 197.667 157.925,193.753 161.833,193.457 161.833 C 193.145 161.833,189.189 157.804,189.276 157.575 C 189.335 157.422,189.538 157.391,189.971 157.471 C 190.308 157.533,191.896 157.583,193.500 157.583 " stroke="none" fill="#676767" fill-rule="evenodd"></path><path id="path2" d="M38.744 15.375 C 38.700 15.490,38.684 67.671,38.707 131.333 L 38.750 247.083 193.417 247.083 L 348.083 247.084 193.458 247.042 L 38.833 247.000 38.833 131.167 L 38.833 15.334 193.542 15.292 L 348.250 15.250 193.536 15.208 C 69.888 15.175,38.807 15.208,38.744 15.375 M192.500 94.333 C 192.500 94.425,192.385 94.500,192.243 94.500 C 192.102 94.500,191.208 95.269,190.256 96.208 C 186.138 100.273,177.968 108.250,177.841 108.330 C 177.765 108.378,174.113 111.954,169.726 116.277 C 165.339 120.600,160.426 125.438,158.807 127.027 C 154.776 130.984,154.720 131.353,157.692 134.267 C 158.617 135.175,160.554 137.079,161.995 138.500 C 163.436 139.921,167.683 144.083,171.433 147.749 C 175.182 151.416,178.857 155.016,179.599 155.749 C 185.869 161.949,191.887 167.743,192.257 167.934 C 193.505 168.582,194.814 168.123,196.446 166.465 C 197.104 165.797,200.101 162.850,203.106 159.917 C 209.663 153.516,213.260 149.993,218.583 144.755 C 220.783 142.590,224.469 138.979,226.774 136.729 C 232.316 131.320,232.376 131.127,229.426 128.251 C 228.095 126.954,217.046 116.129,211.138 110.333 C 210.063 109.279,207.451 106.729,205.333 104.667 C 203.215 102.604,200.077 99.524,198.360 97.822 C 196.643 96.119,194.985 94.601,194.677 94.447 C 194.069 94.144,192.500 94.062,192.500 94.333 M194.613 94.714 C 195.032 94.949,196.394 96.265,207.229 106.910 C 211.618 111.222,215.267 114.787,215.337 114.833 C 215.407 114.879,218.567 117.962,222.357 121.685 C 226.148 125.407,229.526 128.720,229.863 129.046 C 231.725 130.844,231.485 131.764,228.362 134.807 C 227.200 135.939,224.673 138.414,222.746 140.307 C 220.819 142.201,217.553 145.400,215.488 147.417 C 213.423 149.433,208.175 154.579,203.825 158.852 C 194.083 168.423,194.770 167.833,193.367 167.833 C 192.269 167.833,192.515 168.047,184.088 159.778 C 180.149 155.913,175.237 151.100,173.172 149.083 C 171.108 147.067,167.844 143.867,165.918 141.972 C 163.992 140.078,161.078 137.228,159.442 135.639 C 156.250 132.540,156.000 132.215,156.000 131.169 C 156.000 130.089,156.400 129.667,169.573 116.834 C 171.126 115.321,174.537 111.983,177.152 109.417 C 192.388 94.467,191.658 95.173,192.250 94.809 C 192.823 94.456,194.062 94.407,194.613 94.714 M191.375 102.486 C 189.014 104.783,188.948 104.920,190.292 104.752 C 191.509 104.599,195.501 104.601,196.730 104.755 C 197.371 104.835,197.667 104.814,197.667 104.688 C 197.667 104.524,193.791 100.643,193.526 100.542 C 193.466 100.519,192.498 101.394,191.375 102.486 M195.500 102.757 L 197.250 104.508 196.250 104.379 C 194.939 104.210,192.011 104.214,190.750 104.387 L 189.750 104.525 191.497 102.762 C 193.619 100.622,193.367 100.623,195.500 102.757 M190.667 109.678 C 184.610 110.599,180.455 113.150,172.833 120.629 L 168.917 124.471 170.417 125.990 C 171.242 126.825,172.002 127.487,172.107 127.462 C 172.211 127.437,174.166 125.601,176.450 123.382 C 181.653 118.327,182.509 117.633,185.141 116.338 C 189.764 114.063,196.378 114.252,201.149 116.796 C 205.042 118.872,205.790 119.506,215.049 128.574 C 218.330 131.787,221.134 134.443,221.279 134.475 C 221.604 134.546,224.667 131.541,224.667 131.152 C 224.667 131.003,223.785 130.036,222.708 129.004 C 221.631 127.972,219.024 125.430,216.913 123.355 C 207.982 114.574,205.703 112.807,200.750 110.827 C 197.876 109.678,193.755 109.209,190.667 109.678 M197.197 110.163 C 198.084 110.342,199.244 110.641,199.774 110.828 C 200.304 111.014,200.872 111.167,201.036 111.167 C 201.199 111.167,201.333 111.242,201.333 111.333 C 201.333 111.425,201.421 111.500,201.528 111.500 C 201.720 111.500,203.433 112.319,204.074 112.716 C 206.741 114.371,208.580 115.709,209.329 116.542 C 209.555 116.794,209.797 117.000,209.867 117.000 C 210.004 117.000,210.594 117.559,214.584 121.469 C 216.051 122.907,218.883 125.677,220.876 127.626 C 224.171 130.846,224.753 131.491,224.375 131.504 C 224.306 131.507,223.616 132.107,222.841 132.838 C 222.066 133.569,221.378 134.167,221.311 134.167 C 221.167 134.167,220.577 133.608,216.411 129.525 C 207.544 120.837,204.899 118.418,203.856 118.044 C 203.706 117.990,203.359 117.789,203.086 117.598 C 202.812 117.407,202.421 117.162,202.217 117.055 C 202.013 116.948,201.637 116.749,201.381 116.614 C 200.094 115.935,199.107 115.500,198.851 115.500 C 198.695 115.500,198.495 115.433,198.408 115.351 C 197.211 114.224,189.662 114.209,186.750 115.329 C 185.951 115.636,183.412 116.914,183.361 117.034 C 183.331 117.107,183.231 117.167,183.140 117.167 C 182.673 117.167,180.040 119.478,176.368 123.109 C 174.112 125.341,172.197 127.167,172.111 127.167 C 172.026 127.167,171.347 126.568,170.603 125.836 L 169.250 124.505 171.340 122.461 C 175.720 118.177,177.666 116.353,178.690 115.573 C 179.273 115.129,179.787 114.719,179.833 114.662 C 179.879 114.605,180.160 114.416,180.458 114.243 C 180.756 114.070,181.000 113.878,181.000 113.817 C 181.000 113.756,181.131 113.661,181.292 113.608 C 181.583 113.510,182.175 113.162,182.333 112.996 C 182.520 112.799,185.210 111.500,185.430 111.500 C 185.560 111.500,185.667 111.425,185.667 111.333 C 185.667 111.242,185.782 111.167,185.922 111.167 C 186.062 111.167,186.641 111.010,187.207 110.820 C 190.198 109.812,194.171 109.551,197.197 110.163 M190.750 119.763 C 190.567 119.806,189.918 119.955,189.308 120.094 C 186.849 120.656,185.270 121.749,181.250 125.677 C 179.600 127.290,177.706 129.137,177.042 129.783 C 175.527 131.254,175.389 130.854,178.458 133.871 C 185.845 141.133,189.253 142.988,194.489 142.598 C 198.581 142.293,200.134 141.358,205.740 135.826 C 207.762 133.830,209.623 132.006,209.875 131.773 C 210.574 131.127,210.555 131.100,207.072 127.745 C 203.283 124.097,199.660 121.167,198.937 121.167 C 198.885 121.167,198.447 120.985,197.963 120.763 C 196.139 119.925,192.310 119.395,190.750 119.763 M195.573 120.254 C 196.175 120.393,196.873 120.590,197.125 120.691 C 198.637 121.296,200.674 122.412,200.806 122.708 C 200.836 122.777,200.935 122.833,201.026 122.833 C 201.352 122.833,203.570 124.770,206.498 127.612 C 207.553 128.636,208.773 129.812,209.208 130.226 C 209.644 130.639,210.000 131.039,210.000 131.114 C 210.000 131.335,202.167 138.973,201.167 139.726 C 200.662 140.106,200.225 140.473,200.194 140.542 C 200.164 140.610,200.057 140.667,199.958 140.667 C 199.858 140.667,199.658 140.765,199.513 140.885 C 199.368 141.006,198.912 141.240,198.500 141.405 C 198.088 141.571,197.600 141.768,197.417 141.843 C 195.515 142.621,189.484 142.263,188.425 141.309 C 188.338 141.231,188.168 141.167,188.048 141.167 C 186.639 141.167,175.725 131.650,176.317 130.937 C 176.430 130.800,177.241 129.990,178.119 129.136 C 178.997 128.282,180.638 126.683,181.765 125.583 C 184.366 123.045,184.733 122.713,185.750 121.980 C 186.929 121.129,187.375 120.942,190.000 120.199 C 190.936 119.934,194.340 119.968,195.573 120.254 M191.583 123.806 C 191.033 123.956,190.558 124.136,190.528 124.206 C 190.497 124.276,190.354 124.333,190.210 124.333 C 189.639 124.333,187.000 126.617,187.000 127.111 C 187.000 127.218,186.944 127.331,186.875 127.361 C 186.683 127.446,186.167 128.638,186.167 128.996 C 186.167 129.171,186.092 129.360,186.000 129.417 C 185.194 129.915,186.129 134.091,187.374 135.547 C 187.626 135.842,187.833 136.131,187.833 136.188 C 187.833 136.332,189.486 137.544,190.000 137.777 C 191.523 138.468,191.671 138.500,193.365 138.500 C 196.478 138.500,199.084 136.978,200.358 134.417 C 201.666 131.786,201.371 129.472,199.909 130.892 C 198.935 131.837,197.086 132.484,196.264 132.167 C 196.073 132.094,195.610 131.952,195.236 131.852 C 194.861 131.751,194.385 131.523,194.178 131.344 C 193.972 131.164,193.740 130.995,193.663 130.967 C 193.586 130.939,193.255 130.471,192.928 129.926 C 191.865 128.156,192.269 125.797,193.834 124.640 C 195.154 123.664,193.857 123.184,191.583 123.806 M193.833 124.051 C 193.833 124.170,193.572 124.521,193.252 124.831 C 191.667 126.368,191.711 129.334,193.343 130.969 C 195.248 132.878,198.540 132.971,200.066 131.157 C 200.640 130.474,200.909 130.746,200.776 131.875 C 200.248 136.368,195.828 139.262,191.418 138.000 C 185.226 136.230,184.235 128.014,189.833 124.866 C 191.329 124.025,193.833 123.515,193.833 124.051 M163.705 129.545 C 162.950 130.303,162.333 131.040,162.333 131.182 C 162.333 131.511,173.961 142.951,177.333 145.941 C 186.991 154.502,197.915 155.035,207.833 147.431 C 210.468 145.411,217.500 138.669,217.500 138.164 C 217.500 137.853,214.413 134.833,214.096 134.833 C 213.990 134.833,211.965 136.727,209.597 139.042 C 205.236 143.304,203.680 144.595,201.579 145.694 C 196.808 148.191,190.616 148.167,185.333 145.632 C 181.620 143.850,180.261 142.689,169.734 132.296 C 167.433 130.025,165.444 128.167,165.313 128.167 C 165.183 128.167,164.459 128.787,163.705 129.545 M168.643 131.625 C 174.020 136.922,176.723 139.551,177.595 140.333 C 178.056 140.746,178.913 141.523,179.500 142.060 C 180.087 142.597,180.758 143.160,180.992 143.310 C 181.225 143.460,181.588 143.733,181.798 143.917 C 182.340 144.390,184.450 145.538,186.167 146.293 C 186.487 146.434,186.880 146.613,187.039 146.691 C 187.199 146.769,187.465 146.833,187.631 146.833 C 187.797 146.833,188.020 146.920,188.125 147.025 C 189.049 147.949,197.764 147.979,199.079 147.063 C 199.260 146.936,199.578 146.833,199.787 146.833 C 199.996 146.833,200.167 146.758,200.167 146.667 C 200.167 146.575,200.273 146.500,200.402 146.500 C 200.532 146.500,201.097 146.256,201.659 145.958 C 204.302 144.556,204.865 144.088,209.976 139.042 C 212.134 136.910,213.981 135.167,214.080 135.167 C 214.179 135.167,214.960 135.849,215.814 136.683 L 217.367 138.200 214.705 140.808 C 212.208 143.254,211.452 143.959,208.899 146.223 C 207.855 147.148,203.656 150.000,203.337 150.000 C 203.240 150.000,202.880 150.171,202.538 150.379 C 202.196 150.588,201.504 150.899,201.000 151.071 C 200.496 151.242,200.008 151.437,199.917 151.504 C 199.825 151.570,199.525 151.667,199.250 151.719 C 198.541 151.853,197.061 152.151,196.083 152.356 C 194.976 152.588,191.052 152.443,189.583 152.116 C 188.942 151.974,188.192 151.808,187.917 151.749 C 187.642 151.690,187.267 151.581,187.083 151.507 C 186.900 151.434,186.412 151.240,186.000 151.077 C 184.763 150.588,182.832 149.615,182.639 149.384 C 182.540 149.264,182.353 149.167,182.222 149.167 C 182.092 149.167,181.783 148.979,181.536 148.750 C 181.289 148.521,181.027 148.333,180.953 148.333 C 180.791 148.333,179.135 147.110,178.369 146.425 C 178.066 146.154,177.668 145.817,177.484 145.675 C 177.071 145.357,173.819 142.276,171.758 140.250 C 170.318 138.835,166.887 135.520,163.857 132.616 C 163.111 131.900,162.500 131.263,162.500 131.200 C 162.500 131.011,165.066 128.530,165.277 128.514 C 165.384 128.506,166.898 129.906,168.643 131.625 M189.276 157.575 C 189.189 157.804,193.145 161.833,193.457 161.833 C 193.753 161.833,197.667 157.925,197.667 157.629 C 197.667 157.402,197.558 157.374,197.042 157.469 C 196.236 157.616,190.772 157.618,189.971 157.471 C 189.538 157.391,189.335 157.422,189.276 157.575 M193.500 157.984 C 194.371 157.984,195.571 157.942,196.167 157.892 C 196.762 157.842,197.213 157.842,197.167 157.892 C 195.828 159.339,193.709 161.333,193.510 161.333 C 193.364 161.333,192.442 160.540,191.461 159.569 L 189.678 157.805 190.797 157.895 C 191.413 157.945,192.629 157.985,193.500 157.984 " stroke="none" fill="#c7c7c7" fill-rule="evenodd"></path><path id="path3" d="M38.833 131.167 L 38.833 247.000 193.500 247.000 L 348.167 247.000 348.167 131.167 L 348.167 15.333 193.500 15.333 L 38.833 15.333 38.833 131.167 M194.677 94.447 C 194.985 94.601,196.643 96.119,198.360 97.822 C 200.077 99.524,203.215 102.604,205.333 104.667 C 207.451 106.729,210.063 109.279,211.138 110.333 C 217.046 116.129,228.095 126.954,229.426 128.251 C 232.376 131.127,232.316 131.320,226.774 136.729 C 224.469 138.979,220.783 142.590,218.583 144.755 C 213.260 149.993,209.663 153.516,203.106 159.917 C 200.101 162.850,197.104 165.797,196.446 166.465 C 194.814 168.123,193.505 168.582,192.257 167.934 C 191.887 167.743,185.869 161.949,179.599 155.749 C 178.857 155.016,175.182 151.416,171.433 147.749 C 167.683 144.083,163.436 139.921,161.995 138.500 C 160.554 137.079,158.617 135.175,157.692 134.267 C 154.720 131.353,154.776 130.984,158.807 127.027 C 160.426 125.438,165.339 120.600,169.726 116.277 C 174.113 111.954,177.765 108.378,177.841 108.330 C 177.968 108.250,186.138 100.273,190.256 96.208 C 191.208 95.269,192.102 94.500,192.243 94.500 C 192.385 94.500,192.500 94.425,192.500 94.333 C 192.500 94.062,194.069 94.144,194.677 94.447 M191.497 102.762 L 189.750 104.525 190.750 104.387 C 192.011 104.214,194.939 104.210,196.250 104.379 L 197.250 104.508 195.500 102.757 C 193.367 100.623,193.619 100.622,191.497 102.762 M189.661 110.175 C 188.878 110.338,187.774 110.629,187.207 110.820 C 186.641 111.010,186.062 111.167,185.922 111.167 C 185.782 111.167,185.667 111.242,185.667 111.333 C 185.667 111.425,185.560 111.500,185.430 111.500 C 185.210 111.500,182.520 112.799,182.333 112.996 C 182.175 113.162,181.583 113.510,181.292 113.608 C 181.131 113.661,181.000 113.756,181.000 113.817 C 181.000 113.878,180.756 114.070,180.458 114.243 C 180.160 114.416,179.879 114.605,179.833 114.662 C 179.787 114.719,179.273 115.129,178.690 115.573 C 177.666 116.353,175.720 118.177,171.340 122.461 L 169.250 124.505 170.603 125.836 C 171.347 126.568,172.026 127.167,172.111 127.167 C 172.197 127.167,174.112 125.341,176.368 123.109 C 180.040 119.478,182.673 117.167,183.140 117.167 C 183.231 117.167,183.331 117.107,183.361 117.034 C 183.412 116.914,185.951 115.636,186.750 115.329 C 189.662 114.209,197.211 114.224,198.408 115.351 C 198.495 115.433,198.695 115.500,198.851 115.500 C 199.107 115.500,200.094 115.935,201.381 116.614 C 201.637 116.749,202.013 116.948,202.217 117.055 C 202.421 117.162,202.812 117.407,203.086 117.598 C 203.359 117.789,203.706 117.990,203.856 118.044 C 204.899 118.418,207.544 120.837,216.411 129.525 C 220.577 133.608,221.167 134.167,221.311 134.167 C 221.378 134.167,222.066 133.569,222.841 132.838 C 223.616 132.107,224.306 131.507,224.375 131.504 C 224.753 131.491,224.171 130.846,220.876 127.626 C 218.883 125.677,216.051 122.907,214.584 121.469 C 210.594 117.559,210.004 117.000,209.867 117.000 C 209.797 117.000,209.555 116.794,209.329 116.542 C 208.580 115.709,206.741 114.371,204.074 112.716 C 203.433 112.319,201.720 111.500,201.528 111.500 C 201.421 111.500,201.333 111.425,201.333 111.333 C 201.333 111.242,201.199 111.167,201.036 111.167 C 200.872 111.167,200.304 111.014,199.774 110.828 C 196.924 109.826,192.644 109.550,189.661 110.175 M190.000 120.199 C 186.279 121.252,186.051 121.402,181.765 125.583 C 180.638 126.683,178.997 128.282,178.119 129.136 C 177.241 129.990,176.430 130.800,176.317 130.937 C 175.725 131.650,186.639 141.167,188.048 141.167 C 188.168 141.167,188.338 141.231,188.425 141.309 C 189.484 142.263,195.515 142.621,197.417 141.843 C 197.600 141.768,198.088 141.571,198.500 141.405 C 198.912 141.240,199.368 141.006,199.513 140.885 C 199.658 140.765,199.858 140.667,199.958 140.667 C 200.057 140.667,200.164 140.610,200.194 140.542 C 200.225 140.473,200.662 140.106,201.167 139.726 C 202.167 138.973,210.000 131.335,210.000 131.114 C 210.000 131.039,209.644 130.639,209.208 130.226 C 208.773 129.812,207.553 128.636,206.498 127.612 C 203.570 124.770,201.352 122.833,201.026 122.833 C 200.935 122.833,200.836 122.777,200.806 122.708 C 200.674 122.412,198.637 121.296,197.125 120.691 C 195.518 120.048,191.512 119.771,190.000 120.199 M194.070 123.601 C 194.486 123.761,194.378 124.237,193.834 124.640 C 192.269 125.797,191.865 128.156,192.928 129.926 C 193.255 130.471,193.586 130.939,193.663 130.967 C 193.740 130.995,193.972 131.164,194.178 131.344 C 194.385 131.523,194.861 131.751,195.236 131.852 C 195.610 131.952,196.073 132.094,196.264 132.167 C 197.086 132.484,198.935 131.837,199.909 130.892 C 201.371 129.472,201.666 131.786,200.358 134.417 C 199.084 136.978,196.478 138.500,193.365 138.500 C 191.671 138.500,191.523 138.468,190.000 137.777 C 189.486 137.544,187.833 136.332,187.833 136.188 C 187.833 136.131,187.626 135.842,187.374 135.547 C 186.129 134.091,185.194 129.915,186.000 129.417 C 186.092 129.360,186.167 129.171,186.167 128.996 C 186.167 128.638,186.683 127.446,186.875 127.361 C 186.944 127.331,187.000 127.218,187.000 127.111 C 187.000 126.617,189.639 124.333,190.210 124.333 C 190.354 124.333,190.497 124.276,190.528 124.206 C 190.687 123.841,193.461 123.367,194.070 123.601 M163.792 129.806 C 162.231 131.351,162.224 131.050,163.857 132.616 C 166.887 135.520,170.318 138.835,171.758 140.250 C 173.819 142.276,177.071 145.357,177.484 145.675 C 177.668 145.817,178.066 146.154,178.369 146.425 C 179.135 147.110,180.791 148.333,180.953 148.333 C 181.027 148.333,181.289 148.521,181.536 148.750 C 181.783 148.979,182.092 149.167,182.222 149.167 C 182.353 149.167,182.540 149.264,182.639 149.384 C 182.832 149.615,184.763 150.588,186.000 151.077 C 186.412 151.240,186.900 151.434,187.083 151.507 C 187.267 151.581,187.642 151.690,187.917 151.749 C 188.192 151.808,188.942 151.974,189.583 152.116 C 191.052 152.443,194.976 152.588,196.083 152.356 C 197.061 152.151,198.541 151.853,199.250 151.719 C 199.525 151.667,199.825 151.570,199.917 151.504 C 200.008 151.437,200.496 151.242,201.000 151.071 C 201.504 150.899,202.196 150.588,202.538 150.379 C 202.880 150.171,203.240 150.000,203.337 150.000 C 203.656 150.000,207.855 147.148,208.899 146.223 C 211.452 143.959,212.208 143.254,214.705 140.808 L 217.367 138.200 215.814 136.683 C 214.960 135.849,214.179 135.167,214.080 135.167 C 213.981 135.167,212.134 136.910,209.976 139.042 C 204.865 144.088,204.302 144.556,201.659 145.958 C 201.097 146.256,200.532 146.500,200.402 146.500 C 200.273 146.500,200.167 146.575,200.167 146.667 C 200.167 146.758,199.996 146.833,199.787 146.833 C 199.578 146.833,199.260 146.936,199.079 147.063 C 197.764 147.979,189.049 147.949,188.125 147.025 C 188.020 146.920,187.797 146.833,187.631 146.833 C 187.465 146.833,187.199 146.769,187.039 146.691 C 186.880 146.613,186.487 146.434,186.167 146.293 C 184.450 145.538,182.340 144.390,181.798 143.917 C 181.588 143.733,181.225 143.460,180.992 143.310 C 180.758 143.160,180.087 142.597,179.500 142.060 C 178.913 141.523,178.056 140.746,177.595 140.333 C 176.723 139.551,174.020 136.922,168.643 131.625 C 166.898 129.906,165.384 128.506,165.277 128.514 C 165.171 128.522,164.502 129.104,163.792 129.806 M191.461 159.569 C 192.442 160.540,193.364 161.333,193.510 161.333 C 193.709 161.333,195.828 159.339,197.167 157.892 C 197.213 157.842,196.762 157.842,196.167 157.892 C 194.778 158.009,192.231 158.010,190.797 157.895 L 189.678 157.805 191.461 159.569 " stroke="none" fill="#ffffff" fill-rule="evenodd"></path><path id="path4" d="M38.577 15.208 C 38.534 15.323,38.517 67.617,38.541 131.417 L 38.583 247.417 38.667 131.208 C 38.713 67.294,38.729 15.000,38.703 15.000 C 38.677 15.000,38.621 15.094,38.577 15.208 M348.250 131.167 C 348.250 195.041,348.306 247.267,348.375 247.224 C 348.538 247.123,348.538 15.210,348.375 15.109 C 348.306 15.067,348.250 67.293,348.250 131.167 M192.583 94.916 C 192.308 95.038,190.952 96.250,189.568 97.611 C 188.185 98.971,185.485 101.610,183.568 103.476 C 181.652 105.342,176.858 110.039,172.917 113.915 C 168.975 117.791,164.635 122.039,163.273 123.356 C 155.660 130.714,155.622 130.763,156.458 132.138 C 156.740 132.601,157.940 134.000,158.056 134.000 C 158.136 134.000,166.128 141.797,176.475 151.970 C 178.276 153.741,182.034 157.416,184.825 160.137 C 187.616 162.857,190.391 165.571,190.992 166.167 C 193.302 168.459,193.727 168.361,197.512 164.653 C 198.926 163.267,201.714 160.548,203.707 158.609 C 205.700 156.670,209.638 152.809,212.457 150.030 C 215.277 147.251,219.144 143.464,221.052 141.614 C 229.763 133.164,230.833 132.025,230.833 131.196 C 230.833 130.579,227.302 126.354,226.768 126.333 C 226.726 126.331,221.374 121.112,215.917 115.752 C 212.708 112.601,207.911 107.899,205.257 105.303 C 202.602 102.707,199.602 99.772,198.590 98.781 C 195.219 95.478,194.920 95.205,194.383 94.935 C 193.753 94.618,193.266 94.613,192.583 94.916 M195.992 102.499 C 198.558 105.012,198.666 105.301,196.955 105.076 C 195.642 104.903,191.629 104.905,190.042 105.079 C 188.322 105.268,188.409 105.022,190.958 102.486 C 193.614 99.843,193.280 99.842,195.992 102.499 M197.583 109.633 C 198.859 109.895,199.900 110.197,200.075 110.356 C 200.162 110.435,200.354 110.500,200.502 110.500 C 200.650 110.500,201.066 110.641,201.427 110.814 C 201.788 110.986,202.435 111.286,202.865 111.480 C 203.295 111.674,203.693 111.908,203.750 112.000 C 203.807 112.091,203.999 112.167,204.177 112.167 C 204.354 112.167,204.500 112.225,204.500 112.295 C 204.500 112.366,204.781 112.572,205.125 112.752 C 205.838 113.126,208.000 114.607,208.250 114.893 C 208.342 114.998,208.700 115.295,209.047 115.554 C 209.894 116.187,211.481 117.686,216.155 122.268 C 218.316 124.386,221.190 127.192,222.542 128.504 C 223.894 129.817,225.000 131.016,225.000 131.170 C 225.000 131.384,223.485 132.998,221.585 134.807 C 221.373 135.008,220.593 134.383,218.545 132.370 C 207.461 121.478,206.957 121.004,204.377 119.071 C 203.713 118.574,203.094 118.167,203.002 118.167 C 202.909 118.167,202.833 118.110,202.832 118.042 C 202.831 117.973,202.663 117.836,202.457 117.738 C 202.251 117.639,201.708 117.364,201.250 117.127 C 197.060 114.955,191.541 114.409,187.411 115.757 C 186.721 115.982,186.046 116.167,185.912 116.167 C 185.777 116.167,185.667 116.240,185.667 116.330 C 185.667 116.420,185.460 116.544,185.208 116.604 C 184.956 116.665,184.551 116.854,184.308 117.024 C 184.064 117.194,183.817 117.333,183.757 117.333 C 183.698 117.333,183.099 117.740,182.426 118.238 C 181.313 119.061,179.917 120.369,174.184 125.958 C 173.127 126.990,172.185 127.833,172.092 127.833 C 171.812 127.833,168.833 124.778,168.833 124.490 C 168.833 124.240,176.501 116.620,177.582 115.796 C 177.856 115.588,178.201 115.304,178.348 115.167 C 178.788 114.757,179.282 114.374,179.781 114.057 C 180.039 113.892,180.287 113.713,180.333 113.658 C 180.379 113.603,180.678 113.414,180.997 113.237 C 181.316 113.061,181.665 112.836,181.772 112.737 C 181.879 112.638,182.780 112.159,183.775 111.672 C 184.770 111.185,185.714 110.722,185.873 110.643 C 186.032 110.565,186.298 110.500,186.464 110.500 C 186.631 110.500,186.838 110.429,186.925 110.343 C 187.101 110.168,188.116 109.893,189.494 109.647 C 189.995 109.557,190.443 109.446,190.490 109.399 C 190.636 109.253,196.706 109.453,197.583 109.633 M195.500 119.656 C 196.004 119.768,196.488 119.928,196.575 120.013 C 196.662 120.097,196.901 120.167,197.107 120.167 C 197.312 120.167,197.523 120.236,197.575 120.321 C 197.628 120.405,197.895 120.524,198.169 120.584 C 198.443 120.644,198.667 120.762,198.667 120.847 C 198.667 120.931,198.781 121.000,198.920 121.000 C 199.059 121.000,199.470 121.188,199.833 121.417 C 200.196 121.646,200.537 121.833,200.591 121.833 C 200.682 121.833,201.815 122.640,202.000 122.837 C 202.046 122.885,202.421 123.184,202.833 123.501 C 204.969 125.140,210.500 130.629,210.500 131.109 C 210.500 132.024,201.628 140.363,199.488 141.459 C 196.118 143.186,192.094 143.389,188.750 142.001 C 186.797 141.190,184.583 139.916,183.846 139.179 C 183.690 139.024,183.394 138.778,183.187 138.633 C 182.178 137.926,175.777 131.693,175.608 131.253 C 175.495 130.959,176.147 130.282,181.958 124.667 C 184.416 122.292,184.935 121.833,185.168 121.833 C 185.259 121.833,185.333 121.775,185.333 121.705 C 185.333 121.634,185.615 121.430,185.958 121.251 C 186.302 121.072,186.863 120.755,187.205 120.546 C 187.547 120.338,188.001 120.167,188.213 120.167 C 188.426 120.167,188.673 120.094,188.761 120.005 C 189.342 119.424,193.485 119.210,195.500 119.656 M191.583 124.367 C 186.771 125.937,184.698 131.900,187.792 135.275 C 187.998 135.500,188.170 135.736,188.173 135.800 C 188.185 136.013,189.677 137.023,190.637 137.468 C 191.673 137.949,195.164 138.135,195.683 137.737 C 195.811 137.638,196.254 137.433,196.667 137.280 C 197.394 137.011,199.333 135.376,199.333 135.032 C 199.333 134.938,199.393 134.836,199.466 134.806 C 199.867 134.637,200.751 131.746,200.556 131.239 C 200.518 131.139,200.221 131.307,199.898 131.612 C 199.574 131.917,199.171 132.167,199.002 132.167 C 198.833 132.167,198.663 132.260,198.625 132.375 C 198.576 132.523,198.070 132.583,196.870 132.583 C 195.743 132.583,195.115 132.514,194.975 132.375 C 194.861 132.260,194.664 132.167,194.539 132.167 C 193.539 132.167,191.678 129.347,191.678 127.833 C 191.678 126.945,192.476 125.106,193.089 124.583 L 193.480 124.250 192.782 124.227 C 192.398 124.214,191.858 124.277,191.583 124.367 M171.244 133.417 C 178.635 140.668,179.540 141.538,180.005 141.833 C 180.221 141.971,180.568 142.247,180.777 142.446 C 180.987 142.646,181.385 142.943,181.662 143.107 C 181.940 143.271,182.167 143.464,182.167 143.536 C 182.167 143.608,182.247 143.667,182.344 143.667 C 182.442 143.667,182.761 143.836,183.053 144.042 C 184.142 144.813,185.894 145.690,187.583 146.311 C 190.827 147.504,196.340 147.507,199.583 146.318 C 200.545 145.965,203.274 144.576,203.500 144.324 C 203.546 144.273,203.750 144.117,203.953 143.978 C 204.582 143.549,205.938 142.267,209.949 138.312 C 212.075 136.215,213.940 134.500,214.095 134.500 C 214.476 134.500,217.831 137.839,217.832 138.220 C 217.833 138.387,217.264 139.059,216.567 139.714 C 215.871 140.369,214.577 141.625,213.692 142.505 C 211.962 144.226,210.558 145.520,209.268 146.583 C 208.823 146.950,208.262 147.421,208.021 147.630 C 207.780 147.839,207.208 148.249,206.750 148.541 C 206.292 148.833,205.879 149.118,205.833 149.173 C 205.787 149.229,205.637 149.325,205.500 149.386 C 205.362 149.448,205.103 149.592,204.923 149.707 C 203.925 150.346,203.312 150.667,203.087 150.667 C 202.947 150.667,202.833 150.742,202.833 150.833 C 202.833 150.925,202.751 151.000,202.650 151.000 C 202.549 151.000,202.193 151.120,201.859 151.267 C 200.372 151.919,199.146 152.333,198.700 152.333 C 198.496 152.333,198.199 152.402,198.039 152.486 C 196.550 153.270,189.520 153.249,188.735 152.458 C 188.667 152.390,188.366 152.333,188.065 152.333 C 187.765 152.333,187.477 152.264,187.425 152.179 C 187.372 152.095,187.089 151.973,186.795 151.908 C 186.501 151.844,186.146 151.732,186.005 151.659 C 185.421 151.359,184.520 151.000,184.350 151.000 C 184.249 151.000,184.167 150.925,184.167 150.833 C 184.167 150.742,184.052 150.667,183.913 150.667 C 183.773 150.667,183.183 150.367,182.603 150.000 C 182.022 149.633,181.468 149.333,181.371 149.333 C 181.274 149.333,181.169 149.276,181.139 149.205 C 181.108 149.135,180.708 148.839,180.249 148.548 C 179.791 148.256,179.265 147.883,179.081 147.717 C 178.897 147.552,178.297 147.054,177.748 146.610 C 176.124 145.297,161.833 131.464,161.833 131.205 C 161.833 130.921,165.106 127.827,165.361 127.870 C 165.513 127.896,168.161 130.392,171.244 133.417 M198.167 157.479 C 198.167 157.889,193.907 162.000,193.482 162.000 C 193.277 162.000,192.402 161.270,191.249 160.137 C 190.206 159.113,189.236 158.209,189.093 158.129 C 188.950 158.049,188.833 157.800,188.833 157.575 C 188.833 157.084,189.124 157.063,191.826 157.359 C 193.255 157.515,193.989 157.505,195.750 157.304 C 198.095 157.038,198.167 157.043,198.167 157.479 " stroke="none" fill="#3d3d3f" fill-rule="evenodd"></path></g></svg>