<svg id="svg" version="1.1" width="2400" height="1799" xmlns="http://www.w3.org/2000/svg" xmlns:xlink="http://www.w3.org/1999/xlink" style="display: block;"><g id="svgg"><path id="path0" d="M198.555 101.493 C 198.264 101.650,196.817 102.991,195.340 104.473 C 193.863 105.954,192.582 107.167,192.494 107.167 C 192.406 107.167,192.333 107.245,192.333 107.340 C 192.333 107.531,190.992 108.828,190.792 108.831 C 190.723 108.832,190.667 108.946,190.667 109.083 C 190.667 109.221,190.554 109.333,190.417 109.333 C 190.279 109.333,190.167 109.405,190.167 109.492 C 190.167 109.699,189.366 110.500,189.159 110.500 C 189.072 110.500,189.000 110.612,189.000 110.750 C 189.000 110.888,188.887 111.000,188.750 111.000 C 188.612 111.000,188.500 111.112,188.500 111.250 C 188.500 111.388,188.406 111.501,188.292 111.502 C 188.177 111.503,187.323 112.271,186.393 113.210 C 185.463 114.149,183.532 116.042,182.103 117.417 C 180.673 118.792,177.355 122.035,174.729 124.625 C 172.103 127.215,169.890 129.333,169.811 129.333 C 169.732 129.333,169.667 129.404,169.667 129.489 C 169.667 129.631,167.861 131.500,167.724 131.500 C 167.585 131.500,166.333 132.850,166.333 133.000 C 166.333 133.092,166.257 133.167,166.163 133.167 C 166.069 133.167,164.639 134.517,162.986 136.167 C 161.333 137.817,159.955 139.167,159.924 139.167 C 159.892 139.167,159.521 139.523,159.098 139.958 C 157.331 141.780,156.584 142.500,156.462 142.500 C 156.391 142.500,156.332 142.594,156.330 142.708 C 156.329 142.823,156.089 143.083,155.798 143.287 C 154.624 144.107,151.119 147.750,150.810 148.470 C 150.137 150.042,150.542 151.477,152.113 153.083 C 153.530 154.532,156.035 156.833,156.196 156.833 C 156.271 156.833,156.333 156.906,156.333 156.994 C 156.333 157.082,157.129 157.926,158.101 158.869 C 159.073 159.812,161.624 162.327,163.770 164.458 C 165.916 166.590,167.697 168.333,167.727 168.333 C 167.862 168.333,169.667 170.204,169.667 170.344 C 169.667 170.430,169.729 170.500,169.804 170.500 C 169.880 170.500,172.096 172.619,174.728 175.208 C 177.360 177.798,180.831 181.192,182.440 182.750 C 184.049 184.308,185.977 186.201,186.724 186.955 C 187.472 187.710,188.177 188.329,188.292 188.330 C 188.406 188.332,188.500 188.446,188.500 188.583 C 188.500 188.721,188.612 188.833,188.750 188.833 C 188.887 188.833,189.000 188.904,189.000 188.991 C 189.000 189.221,189.755 190.000,189.977 190.000 C 190.082 190.000,190.167 190.112,190.167 190.250 C 190.167 190.387,190.279 190.500,190.417 190.500 C 190.554 190.500,190.667 190.604,190.667 190.731 C 190.667 190.858,190.835 191.074,191.042 191.211 C 191.628 191.600,192.333 192.300,192.333 192.492 C 192.333 192.588,192.405 192.667,192.493 192.667 C 192.581 192.667,193.865 193.879,195.346 195.361 C 199.438 199.456,200.905 199.750,203.552 197.005 C 204.085 196.452,204.592 196.000,204.677 196.000 C 204.763 196.000,204.833 195.927,204.833 195.838 C 204.833 195.646,207.339 193.167,207.533 193.167 C 207.607 193.167,207.667 193.054,207.667 192.917 C 207.667 192.779,207.779 192.667,207.917 192.667 C 208.054 192.667,208.167 192.554,208.167 192.417 C 208.167 192.279,208.239 192.167,208.326 192.167 C 208.558 192.167,209.833 190.920,209.833 190.692 C 209.833 190.587,209.914 190.500,210.013 190.500 C 210.111 190.500,210.701 189.994,211.323 189.375 C 211.945 188.756,214.385 186.375,216.747 184.083 C 219.108 181.792,222.423 178.548,224.113 176.875 C 225.803 175.202,227.227 173.833,227.279 173.833 C 227.384 173.833,228.667 172.498,228.667 172.388 C 228.667 172.282,229.530 171.495,229.958 171.211 C 230.165 171.074,230.333 170.858,230.333 170.731 C 230.333 170.604,230.446 170.500,230.583 170.500 C 230.721 170.500,230.833 170.387,230.833 170.250 C 230.833 170.112,230.900 170.000,230.982 170.000 C 231.064 170.000,232.277 168.875,233.678 167.500 C 235.078 166.125,236.286 165.000,236.362 165.000 C 236.438 165.000,236.500 164.887,236.500 164.750 C 236.500 164.612,236.612 164.500,236.750 164.500 C 236.887 164.500,237.000 164.425,237.000 164.333 C 237.000 164.150,238.780 162.333,238.960 162.333 C 239.111 162.333,239.833 161.485,239.833 161.307 C 239.833 161.230,239.946 161.167,240.083 161.167 C 240.221 161.167,240.333 161.054,240.333 160.917 C 240.333 160.779,240.407 160.667,240.497 160.667 C 240.646 160.667,243.958 157.491,247.981 153.490 C 251.131 150.358,251.016 149.310,247.099 145.500 C 245.733 144.171,243.729 142.202,242.646 141.125 C 241.564 140.048,240.634 139.167,240.581 139.167 C 240.465 139.167,239.875 138.529,239.435 137.929 C 239.262 137.693,239.067 137.500,239.001 137.500 C 238.936 137.500,237.144 135.775,235.018 133.667 C 232.892 131.558,231.081 129.833,230.993 129.833 C 230.905 129.833,230.833 129.721,230.833 129.583 C 230.833 129.446,230.721 129.333,230.583 129.333 C 230.446 129.333,230.333 129.229,230.333 129.103 C 230.333 128.976,230.165 128.760,229.958 128.623 C 229.530 128.339,228.667 127.551,228.667 127.445 C 228.667 127.334,227.383 126.000,227.276 126.000 C 227.223 126.000,225.794 124.631,224.100 122.958 C 217.078 116.022,215.863 114.833,215.797 114.833 C 215.759 114.833,214.870 113.971,213.822 112.918 C 212.774 111.864,211.823 111.002,211.708 111.001 C 211.594 111.000,211.500 110.928,211.500 110.840 C 211.500 110.636,210.192 109.333,209.987 109.333 C 209.902 109.333,209.833 109.250,209.833 109.147 C 209.833 108.933,208.532 107.667,208.313 107.667 C 208.232 107.667,208.167 107.586,208.167 107.488 C 208.167 107.389,207.856 107.033,207.476 106.696 C 207.096 106.359,205.836 105.126,204.675 103.957 C 201.868 101.129,200.356 100.520,198.555 101.493 M201.832 101.833 C 202.190 102.015,203.454 103.122,204.640 104.291 C 205.827 105.460,209.785 109.342,213.437 112.917 C 217.089 116.492,222.140 121.442,224.663 123.917 C 227.185 126.392,230.374 129.515,231.749 130.858 C 245.340 144.128,249.185 147.955,249.417 148.442 C 249.706 149.051,249.746 150.600,249.490 151.281 C 249.393 151.539,247.560 153.475,245.418 155.583 C 241.699 159.243,231.632 169.089,227.443 173.163 C 226.357 174.219,224.256 176.283,222.774 177.750 C 221.292 179.217,216.900 183.529,213.016 187.333 C 209.131 191.137,205.175 195.018,204.224 195.956 C 201.518 198.627,199.406 199.124,197.876 197.449 C 197.693 197.248,196.464 196.033,195.145 194.750 C 192.824 192.491,180.033 179.967,176.591 176.583 C 175.658 175.667,173.437 173.500,171.656 171.768 C 168.835 169.026,156.528 156.967,152.812 153.304 C 149.959 150.491,150.043 149.263,153.313 146.030 C 154.865 144.496,166.232 133.352,169.751 129.917 C 170.408 129.275,172.861 126.875,175.202 124.583 C 182.304 117.631,192.607 107.556,195.143 105.083 C 196.459 103.800,197.659 102.627,197.810 102.477 C 198.830 101.461,200.560 101.184,201.832 101.833 M197.515 112.341 C 196.109 113.719,195.000 114.889,195.050 114.939 C 195.101 114.990,196.291 114.958,197.696 114.870 C 199.254 114.771,201.225 114.765,202.750 114.855 C 205.210 114.999,205.965 114.954,205.535 114.688 C 205.422 114.619,204.253 113.498,202.936 112.197 C 201.620 110.897,200.437 109.833,200.307 109.833 C 200.177 109.833,198.921 110.962,197.515 112.341 M200.877 110.590 C 201.128 110.823,201.333 111.085,201.333 111.173 C 201.333 111.261,201.400 111.333,201.483 111.333 C 201.565 111.333,202.419 112.121,203.382 113.083 C 204.450 114.151,205.022 114.833,204.849 114.833 C 204.694 114.833,204.475 114.741,204.362 114.629 C 204.218 114.485,203.177 114.406,200.870 114.365 C 197.866 114.311,197.268 114.358,195.833 114.761 C 195.550 114.841,196.163 114.127,197.750 112.528 C 200.322 109.937,200.232 109.993,200.877 110.590 M197.000 121.743 C 194.725 122.042,192.435 122.584,190.917 123.184 C 189.550 123.723,187.567 124.669,186.000 125.530 C 184.986 126.087,182.904 127.449,182.231 127.995 C 181.946 128.227,181.276 128.754,180.743 129.167 C 178.999 130.516,178.308 131.152,173.438 135.896 C 170.792 138.474,168.560 140.608,168.480 140.639 C 167.901 140.858,171.512 144.917,172.180 144.799 C 172.332 144.772,174.847 142.414,177.769 139.559 C 184.599 132.887,185.790 131.921,189.207 130.280 C 190.649 129.587,191.444 129.310,194.167 128.552 C 195.776 128.104,202.363 128.111,204.167 128.563 C 208.796 129.723,212.371 131.531,216.601 134.853 C 218.275 136.167,219.052 136.899,226.417 144.093 C 235.731 153.192,236.743 154.162,236.917 154.160 C 237.205 154.157,241.167 150.206,241.167 149.921 C 241.167 149.772,240.435 148.936,239.542 148.065 C 238.648 147.193,235.104 143.725,231.667 140.359 C 221.227 130.134,219.349 128.467,215.944 126.405 C 215.500 126.136,214.938 125.791,214.694 125.637 C 214.130 125.281,210.561 123.500,210.412 123.500 C 210.351 123.500,210.064 123.395,209.775 123.268 C 206.675 121.896,200.991 121.217,197.000 121.743 M203.519 122.016 C 206.099 122.539,206.652 122.655,207.417 122.827 C 207.875 122.931,208.449 123.124,208.692 123.258 C 208.936 123.391,209.292 123.500,209.485 123.500 C 209.677 123.500,210.114 123.650,210.456 123.833 C 210.799 124.017,211.211 124.167,211.373 124.167 C 211.534 124.167,211.667 124.226,211.667 124.299 C 211.667 124.371,212.135 124.644,212.708 124.904 C 213.281 125.164,214.073 125.592,214.467 125.855 C 214.861 126.118,215.286 126.333,215.411 126.333 C 215.536 126.333,215.664 126.400,215.694 126.481 C 215.770 126.682,217.298 127.833,217.490 127.833 C 217.574 127.833,217.742 127.927,217.863 128.042 C 217.984 128.156,218.390 128.458,218.766 128.713 C 219.141 128.967,219.966 129.658,220.599 130.248 C 221.232 130.837,221.809 131.322,221.881 131.326 C 221.952 131.330,222.231 131.558,222.500 131.833 C 222.769 132.108,223.048 132.335,223.119 132.338 C 223.191 132.340,223.438 132.601,223.667 132.917 C 223.896 133.232,224.145 133.493,224.221 133.495 C 224.296 133.498,224.633 133.813,224.971 134.195 C 225.308 134.577,225.765 135.045,225.987 135.236 C 226.208 135.427,227.564 136.746,228.999 138.167 C 234.440 143.553,237.848 146.833,238.005 146.833 C 238.094 146.833,238.167 146.902,238.167 146.986 C 238.167 147.132,238.454 147.422,240.208 149.042 C 241.273 150.026,241.461 149.713,237.864 152.954 C 236.802 153.911,236.932 153.972,234.127 151.208 C 231.542 148.660,227.926 145.123,226.206 143.458 C 225.661 142.931,225.130 142.500,225.025 142.500 C 224.919 142.500,224.833 142.413,224.833 142.308 C 224.833 142.080,223.558 140.833,223.326 140.833 C 223.239 140.833,223.167 140.736,223.167 140.618 C 223.167 140.499,222.602 139.880,221.911 139.243 C 221.220 138.605,220.141 137.596,219.513 137.000 C 217.792 135.367,217.305 134.940,216.667 134.501 C 216.346 134.280,216.023 134.003,215.950 133.883 C 215.877 133.764,215.742 133.667,215.651 133.667 C 215.560 133.667,215.283 133.479,215.035 133.249 C 214.788 133.020,214.172 132.626,213.668 132.374 C 213.163 132.123,212.725 131.860,212.694 131.790 C 212.663 131.720,212.233 131.471,211.739 131.237 C 211.244 131.004,210.798 130.744,210.746 130.661 C 210.695 130.577,210.356 130.429,209.993 130.331 C 209.630 130.234,209.333 130.082,209.333 129.994 C 209.333 129.905,209.202 129.831,209.042 129.828 C 208.881 129.825,208.604 129.713,208.426 129.578 C 208.249 129.443,207.986 129.331,207.843 129.328 C 207.700 129.325,207.283 129.177,206.917 129.000 C 206.550 128.823,205.963 128.675,205.613 128.672 C 205.263 128.669,204.864 128.554,204.726 128.417 C 204.561 128.252,204.147 128.167,203.509 128.167 C 202.977 128.167,202.223 128.054,201.833 127.917 C 201.014 127.628,198.017 127.586,196.833 127.847 C 196.421 127.938,195.556 128.073,194.912 128.147 C 194.268 128.221,193.579 128.368,193.382 128.474 C 193.184 128.580,192.811 128.669,192.553 128.672 C 192.295 128.675,191.783 128.823,191.417 129.000 C 191.050 129.177,190.628 129.325,190.479 129.328 C 190.330 129.331,190.114 129.446,190.000 129.583 C 189.886 129.721,189.661 129.833,189.500 129.833 C 189.339 129.833,189.114 129.946,189.000 130.083 C 188.886 130.221,188.657 130.333,188.491 130.333 C 188.326 130.333,188.091 130.428,187.970 130.544 C 187.849 130.659,187.544 130.845,187.292 130.957 C 187.040 131.068,186.833 131.236,186.833 131.330 C 186.833 131.423,186.718 131.500,186.577 131.500 C 186.316 131.500,185.541 131.996,184.923 132.559 C 184.736 132.729,184.396 132.992,184.167 133.142 C 183.467 133.603,182.884 134.142,179.951 137.042 C 178.397 138.577,177.060 139.833,176.980 139.833 C 176.899 139.833,176.833 139.908,176.833 140.000 C 176.833 140.092,176.683 140.317,176.500 140.500 C 176.317 140.683,176.092 140.833,176.000 140.833 C 175.908 140.833,175.832 140.890,175.831 140.958 C 175.828 141.130,174.545 142.499,174.382 142.505 C 174.309 142.507,174.063 142.768,173.833 143.083 C 173.604 143.399,173.323 143.660,173.208 143.662 C 173.094 143.665,173.000 143.770,173.000 143.897 C 173.000 144.140,172.424 144.393,172.000 144.336 C 171.743 144.302,168.667 141.352,168.667 141.140 C 168.667 141.074,169.760 139.947,171.097 138.635 C 172.433 137.323,174.637 135.153,175.994 133.812 C 177.351 132.471,178.536 131.346,178.628 131.312 C 178.721 131.278,179.236 130.855,179.773 130.372 C 181.221 129.071,181.204 129.086,181.833 128.652 C 182.154 128.431,182.454 128.212,182.500 128.165 C 182.745 127.917,185.489 126.147,186.167 125.800 C 186.396 125.683,186.682 125.493,186.804 125.377 C 186.925 125.261,187.159 125.167,187.325 125.167 C 187.490 125.167,187.713 125.062,187.820 124.933 C 187.926 124.805,188.198 124.653,188.424 124.597 C 188.649 124.540,188.833 124.420,188.833 124.330 C 188.833 124.240,188.966 124.167,189.127 124.167 C 189.289 124.167,189.701 124.017,190.044 123.833 C 190.386 123.650,190.821 123.500,191.010 123.500 C 191.200 123.500,191.519 123.408,191.719 123.296 C 192.148 123.056,193.395 122.742,195.250 122.410 C 195.983 122.278,196.846 122.102,197.167 122.019 C 198.001 121.802,202.455 121.800,203.519 122.016 M196.917 135.014 C 196.183 135.101,195.251 135.284,194.845 135.420 C 194.439 135.556,194.010 135.667,193.891 135.667 C 192.504 135.667,189.104 138.090,185.341 141.761 C 183.549 143.509,180.982 146.009,179.636 147.317 C 177.957 148.949,177.219 149.776,177.286 149.950 C 177.445 150.366,185.424 158.079,186.905 159.250 C 187.253 159.525,187.736 159.906,187.977 160.096 C 191.706 163.037,195.439 164.562,199.449 164.781 C 204.945 165.082,208.664 163.469,213.476 158.694 C 214.461 157.717,216.857 155.349,218.800 153.432 C 220.743 151.516,222.333 149.886,222.333 149.810 C 222.333 149.735,221.302 148.669,220.042 147.442 C 218.781 146.216,216.963 144.444,216.000 143.505 C 212.031 139.633,208.912 137.432,205.250 135.920 C 203.302 135.115,199.525 134.705,196.917 135.014 M202.500 135.486 C 203.004 135.596,203.754 135.799,204.167 135.937 C 204.579 136.076,205.170 136.253,205.479 136.332 C 205.788 136.410,206.122 136.555,206.220 136.654 C 206.319 136.753,206.572 136.833,206.783 136.833 C 206.994 136.833,207.167 136.910,207.167 137.004 C 207.167 137.098,207.335 137.252,207.542 137.346 C 208.147 137.622,208.910 138.043,209.000 138.151 C 209.141 138.318,210.068 138.933,210.333 139.035 C 210.471 139.087,211.126 139.589,211.790 140.149 C 212.454 140.709,213.031 141.167,213.071 141.167 C 213.112 141.167,214.077 142.085,215.216 143.208 C 217.253 145.217,219.210 147.090,220.673 148.431 C 222.281 149.905,222.724 149.139,216.977 154.828 C 211.222 160.527,210.904 160.833,210.751 160.833 C 210.645 160.833,209.336 161.845,208.863 162.292 C 208.742 162.406,208.506 162.500,208.339 162.500 C 208.172 162.500,207.992 162.612,207.940 162.750 C 207.887 162.887,207.697 163.000,207.517 163.000 C 207.337 163.000,207.078 163.112,206.940 163.250 C 206.803 163.387,206.608 163.500,206.508 163.500 C 206.407 163.500,205.898 163.650,205.377 163.833 C 204.855 164.017,204.163 164.167,203.839 164.168 C 203.515 164.168,202.979 164.244,202.647 164.336 C 201.322 164.704,195.876 164.306,195.575 163.819 C 195.526 163.741,195.119 163.628,194.670 163.568 C 194.214 163.508,193.815 163.358,193.765 163.230 C 193.717 163.103,193.458 163.000,193.190 163.000 C 192.910 163.000,192.661 162.893,192.606 162.750 C 192.554 162.612,192.395 162.500,192.254 162.500 C 192.112 162.500,191.623 162.237,191.167 161.917 C 190.710 161.596,190.294 161.333,190.242 161.333 C 190.096 161.333,188.724 160.308,186.803 158.762 C 186.282 158.343,185.776 158.000,185.678 158.000 C 185.580 158.000,185.500 157.887,185.500 157.750 C 185.500 157.612,185.387 157.500,185.250 157.500 C 185.112 157.500,185.000 157.434,185.000 157.352 C 185.000 157.271,184.456 156.671,183.792 156.019 C 178.652 150.976,177.667 149.979,177.667 149.822 C 177.667 149.725,178.731 148.618,180.031 147.364 C 183.239 144.269,187.416 140.204,188.349 139.268 C 188.771 138.846,189.183 138.500,189.266 138.499 C 189.349 138.499,189.702 138.236,190.051 137.916 C 190.400 137.595,190.784 137.333,190.906 137.333 C 191.027 137.333,191.219 137.221,191.333 137.083 C 191.447 136.946,191.644 136.833,191.771 136.833 C 191.898 136.833,192.281 136.683,192.623 136.500 C 192.965 136.317,193.377 136.167,193.539 136.167 C 193.701 136.167,193.833 136.100,193.833 136.019 C 193.833 135.938,194.302 135.820,194.875 135.757 C 195.448 135.694,196.142 135.539,196.417 135.414 C 197.030 135.133,201.101 135.182,202.500 135.486 M198.000 140.083 C 197.880 140.228,197.517 140.333,197.141 140.333 C 196.739 140.333,196.456 140.422,196.401 140.565 C 196.352 140.692,196.074 140.844,195.783 140.902 C 195.493 140.960,194.977 141.231,194.637 141.504 C 194.297 141.777,193.978 142.000,193.926 142.000 C 193.763 142.000,192.030 143.811,191.802 144.219 C 191.425 144.897,190.717 146.392,190.486 147.000 C 190.138 147.915,190.078 151.888,190.408 152.217 C 190.550 152.360,190.667 152.663,190.667 152.891 C 190.667 153.502,191.414 154.883,192.171 155.671 C 192.535 156.050,192.833 156.416,192.833 156.485 C 192.833 156.631,193.558 157.333,193.709 157.333 C 193.766 157.333,194.060 157.559,194.361 157.834 C 194.663 158.110,195.058 158.382,195.239 158.440 C 195.420 158.497,195.670 158.647,195.796 158.772 C 195.921 158.897,196.191 159.000,196.395 159.000 C 196.600 159.000,196.858 159.091,196.969 159.202 C 197.575 159.808,203.426 159.804,203.629 159.197 C 203.665 159.089,203.831 159.000,203.999 159.000 C 204.378 159.000,206.000 158.170,206.000 157.976 C 206.000 157.898,206.112 157.833,206.250 157.833 C 206.387 157.833,206.500 157.763,206.500 157.676 C 206.500 157.590,206.728 157.384,207.007 157.219 C 207.286 157.055,207.556 156.751,207.608 156.543 C 207.660 156.336,207.791 156.167,207.898 156.167 C 208.162 156.167,208.614 155.616,209.098 154.706 C 209.319 154.291,209.566 153.869,209.647 153.767 C 209.728 153.666,209.850 153.321,209.917 153.000 C 209.984 152.679,210.096 152.342,210.166 152.250 C 210.394 151.952,210.531 149.603,210.348 149.122 C 210.077 148.409,209.170 148.517,208.928 149.292 C 208.864 149.498,208.715 149.667,208.598 149.667 C 208.481 149.667,208.249 149.817,208.083 150.000 C 207.917 150.183,207.689 150.333,207.575 150.333 C 207.462 150.333,207.324 150.452,207.268 150.596 C 207.198 150.780,206.995 150.844,206.593 150.809 C 206.277 150.782,205.964 150.814,205.898 150.880 C 205.832 150.946,205.598 151.000,205.378 151.000 C 205.158 151.000,204.838 151.075,204.666 151.167 C 204.475 151.269,204.316 151.274,204.257 151.179 C 204.205 151.093,203.731 150.970,203.206 150.904 C 202.499 150.816,202.063 150.642,201.531 150.236 C 201.136 149.934,200.761 149.664,200.698 149.635 C 200.475 149.534,199.333 148.024,199.333 147.830 C 199.333 147.722,199.215 147.384,199.070 147.078 C 198.285 145.424,199.506 141.786,201.042 141.203 C 201.537 141.015,201.672 140.405,201.300 140.033 C 200.991 139.724,198.264 139.765,198.000 140.083 M200.736 140.101 C 201.173 140.269,201.040 140.624,200.237 141.438 C 198.189 143.516,198.043 147.021,199.913 149.207 C 202.308 152.007,206.374 152.237,208.896 149.715 C 211.146 147.465,210.277 152.821,207.904 155.829 C 204.126 160.616,196.253 160.593,192.585 155.785 C 187.681 149.358,191.419 141.185,199.750 140.114 C 200.025 140.079,200.300 140.039,200.361 140.025 C 200.423 140.011,200.591 140.046,200.736 140.101 M161.122 147.961 C 160.138 148.948,159.333 149.837,159.333 149.936 C 159.333 150.114,169.921 160.504,176.667 166.946 C 181.291 171.363,185.175 174.030,190.167 176.216 C 191.007 176.584,193.697 177.406,195.250 177.769 C 197.180 178.220,203.314 178.221,205.250 177.770 C 208.841 176.934,209.787 176.595,213.083 174.959 C 215.996 173.513,221.099 169.868,222.921 167.931 C 223.014 167.832,223.614 167.267,224.254 166.676 C 226.429 164.668,231.505 159.635,231.674 159.320 C 231.841 159.008,228.018 155.004,227.422 154.866 C 227.188 154.812,226.889 155.095,220.583 161.320 C 216.598 165.255,214.570 167.021,212.750 168.141 C 211.562 168.873,208.654 170.291,208.074 170.421 C 207.804 170.482,207.283 170.629,206.917 170.748 C 204.320 171.591,198.437 171.885,196.083 171.289 C 195.533 171.150,194.765 170.984,194.376 170.920 C 193.987 170.856,193.626 170.736,193.574 170.652 C 193.523 170.568,193.316 170.497,193.115 170.494 C 192.914 170.491,192.450 170.344,192.083 170.167 C 191.717 169.990,191.349 169.842,191.266 169.839 C 190.733 169.819,186.338 167.403,184.917 166.348 C 184.458 166.008,183.786 165.512,183.423 165.246 C 183.059 164.980,182.643 164.647,182.499 164.506 C 182.354 164.365,181.606 163.688,180.836 163.000 C 180.066 162.313,178.382 160.726,177.093 159.475 C 175.805 158.224,174.300 156.769,173.750 156.242 C 173.200 155.716,170.680 153.234,168.150 150.726 C 165.338 147.939,163.427 146.167,163.231 146.167 C 163.046 146.167,162.156 146.924,161.122 147.961 M163.901 146.917 C 164.148 147.146,164.422 147.333,164.509 147.333 C 164.596 147.333,164.667 147.420,164.667 147.526 C 164.667 147.753,165.942 149.000,166.174 149.000 C 166.261 149.000,166.333 149.083,166.333 149.185 C 166.333 149.394,167.017 150.159,167.208 150.164 C 167.394 150.168,168.000 150.808,168.000 151.000 C 168.000 151.092,168.112 151.167,168.250 151.167 C 168.387 151.167,168.500 151.282,168.500 151.422 C 168.500 151.562,168.626 151.725,168.779 151.784 C 169.049 151.888,169.667 152.432,169.667 152.567 C 169.667 152.698,172.726 155.667,172.862 155.667 C 172.938 155.667,173.000 155.779,173.000 155.917 C 173.000 156.054,173.074 156.167,173.164 156.167 C 173.254 156.167,174.155 157.010,175.167 158.042 C 176.178 159.073,177.128 160.029,177.277 160.167 C 177.426 160.304,177.931 160.763,178.399 161.186 C 178.867 161.609,179.467 162.153,179.733 162.394 C 179.998 162.636,180.317 162.833,180.441 162.833 C 180.565 162.833,180.667 162.905,180.667 162.992 C 180.667 163.147,181.444 164.000,181.585 164.000 C 181.624 164.000,181.906 164.244,182.212 164.542 C 183.421 165.719,186.301 167.833,186.696 167.833 C 186.863 167.833,187.000 167.901,187.000 167.984 C 187.000 168.066,187.206 168.218,187.458 168.321 C 188.076 168.572,188.904 169.056,188.970 169.203 C 189.000 169.269,189.279 169.371,189.590 169.429 C 189.900 169.487,190.242 169.640,190.348 169.767 C 190.454 169.895,190.702 170.000,190.900 170.000 C 191.098 170.000,191.407 170.103,191.588 170.229 C 191.769 170.354,192.179 170.514,192.500 170.583 C 192.821 170.652,193.132 170.784,193.191 170.877 C 193.250 170.970,193.700 171.083,194.191 171.129 C 194.682 171.175,195.133 171.291,195.195 171.386 C 195.574 171.974,204.516 171.985,205.452 171.398 C 205.655 171.271,206.156 171.167,206.566 171.167 C 206.988 171.167,207.412 171.064,207.547 170.929 C 207.678 170.798,208.056 170.640,208.387 170.578 C 208.718 170.516,209.075 170.360,209.181 170.233 C 209.287 170.105,209.592 170.000,209.859 170.000 C 210.136 170.000,210.385 169.893,210.440 169.750 C 210.492 169.612,210.644 169.500,210.776 169.500 C 211.096 169.500,212.381 168.806,212.550 168.542 C 212.623 168.427,212.783 168.333,212.905 168.333 C 213.180 168.333,215.572 166.568,216.521 165.666 C 216.906 165.300,217.235 165.000,217.251 165.000 C 217.314 165.000,219.167 163.143,219.167 163.080 C 219.167 162.989,219.999 162.167,220.091 162.167 C 220.238 162.167,220.833 161.498,220.833 161.333 C 220.833 161.242,220.901 161.167,220.983 161.167 C 221.065 161.167,222.386 159.929,223.919 158.417 C 225.452 156.904,226.772 155.667,226.853 155.667 C 226.934 155.667,227.000 155.554,227.000 155.417 C 227.000 155.278,227.148 155.167,227.333 155.167 C 227.517 155.167,227.667 155.244,227.667 155.339 C 227.667 155.433,227.784 155.556,227.928 155.611 C 228.233 155.728,230.000 157.491,230.000 157.678 C 230.000 157.748,230.072 157.831,230.160 157.861 C 230.248 157.892,230.604 158.178,230.951 158.496 L 231.583 159.076 228.986 161.663 C 227.558 163.086,226.208 164.409,225.986 164.603 C 225.765 164.796,225.272 165.284,224.892 165.686 C 224.120 166.502,222.086 168.340,221.715 168.557 C 221.582 168.635,221.225 168.935,220.921 169.224 C 219.689 170.395,219.190 170.833,219.088 170.833 C 219.028 170.833,218.636 171.096,218.216 171.417 C 217.796 171.737,217.384 172.000,217.300 172.000 C 217.217 172.000,216.909 172.225,216.616 172.499 C 216.323 172.774,215.993 172.999,215.883 172.999 C 215.773 173.000,215.623 173.094,215.550 173.208 C 215.477 173.323,215.192 173.534,214.917 173.678 C 214.642 173.822,214.079 174.116,213.667 174.331 C 213.254 174.547,212.804 174.786,212.667 174.862 C 212.529 174.938,212.255 175.071,212.058 175.157 C 211.861 175.243,211.650 175.392,211.590 175.490 C 211.530 175.587,211.327 175.667,211.140 175.667 C 210.953 175.667,210.564 175.776,210.275 175.909 C 209.447 176.292,208.312 176.679,207.550 176.840 C 207.165 176.921,206.715 177.062,206.550 177.153 C 206.258 177.314,205.018 177.492,201.571 177.865 C 199.845 178.052,198.968 177.990,195.583 177.441 C 193.940 177.174,192.866 176.905,192.058 176.559 C 191.769 176.435,191.413 176.333,191.266 176.333 C 191.119 176.333,190.719 176.183,190.377 176.000 C 190.035 175.817,189.632 175.667,189.481 175.667 C 189.331 175.667,189.114 175.554,189.000 175.417 C 188.886 175.279,188.661 175.167,188.500 175.167 C 188.339 175.167,188.114 175.054,188.000 174.917 C 187.886 174.779,187.682 174.667,187.548 174.667 C 187.413 174.667,187.112 174.517,186.879 174.333 C 186.646 174.150,186.353 174.000,186.228 174.000 C 186.102 174.000,186.000 173.926,186.000 173.837 C 186.000 173.747,185.807 173.624,185.570 173.565 C 185.334 173.506,184.903 173.239,184.612 172.973 C 184.321 172.706,183.920 172.446,183.720 172.395 C 183.521 172.345,183.317 172.198,183.267 172.068 C 183.218 171.939,183.062 171.833,182.922 171.833 C 182.782 171.833,182.667 171.766,182.667 171.683 C 182.667 171.600,182.261 171.263,181.766 170.935 C 181.271 170.606,180.612 170.092,180.303 169.794 C 179.993 169.495,179.160 168.765,178.453 168.172 C 177.745 167.579,177.167 167.035,177.167 166.963 C 177.167 166.892,177.054 166.833,176.917 166.833 C 176.779 166.833,176.667 166.721,176.667 166.583 C 176.667 166.446,176.592 166.333,176.500 166.333 C 176.333 166.333,175.000 165.074,175.000 164.917 C 175.000 164.811,174.360 164.167,174.256 164.167 C 174.213 164.167,173.181 163.197,171.964 162.011 C 170.746 160.825,168.587 158.727,167.167 157.348 C 165.746 155.969,163.663 153.939,162.538 152.837 C 161.414 151.735,160.451 150.833,160.398 150.833 C 160.251 150.833,159.678 150.104,159.678 149.917 C 159.678 149.735,160.249 149.000,160.391 149.000 C 160.439 149.000,161.048 148.438,161.745 147.750 C 163.150 146.363,163.258 146.321,163.901 146.917 M195.000 184.851 C 195.000 185.127,200.030 190.000,200.315 190.000 C 200.449 190.000,201.636 188.931,202.952 187.625 C 204.268 186.319,205.417 185.225,205.506 185.194 C 205.594 185.164,205.667 185.027,205.667 184.890 C 205.667 184.678,205.442 184.662,204.125 184.779 C 202.198 184.951,198.381 184.957,196.458 184.791 C 195.420 184.701,195.000 184.718,195.000 184.851 M198.833 185.327 C 200.129 185.452,201.171 185.401,204.136 185.068 L 205.189 184.950 202.914 187.225 C 201.508 188.632,200.512 189.500,200.306 189.500 C 200.100 189.500,199.101 188.631,197.694 187.226 L 195.417 184.952 196.417 185.071 C 196.967 185.136,198.054 185.252,198.833 185.327 " stroke="none" fill="#d9d9d9" fill-rule="evenodd"></path><path id="path1" d="M0.000 149.917 L 0.000 299.833 200.000 299.833 L 400.000 299.833 400.000 149.917 L 400.000 0.000 200.000 0.000 L 0.000 0.000 0.000 149.917 M201.914 101.498 C 202.272 101.681,203.514 102.787,204.675 103.957 C 205.836 105.126,207.096 106.359,207.476 106.696 C 207.856 107.033,208.167 107.389,208.167 107.488 C 208.167 107.586,208.232 107.667,208.313 107.667 C 208.532 107.667,209.833 108.933,209.833 109.147 C 209.833 109.250,209.902 109.333,209.987 109.333 C 210.192 109.333,211.500 110.636,211.500 110.840 C 211.500 110.928,211.594 111.000,211.708 111.001 C 211.823 111.002,212.774 111.864,213.822 112.918 C 214.870 113.971,215.759 114.833,215.797 114.833 C 215.863 114.833,217.078 116.022,224.100 122.958 C 225.794 124.631,227.223 126.000,227.276 126.000 C 227.383 126.000,228.667 127.334,228.667 127.445 C 228.667 127.551,229.530 128.339,229.958 128.623 C 230.165 128.760,230.333 128.976,230.333 129.103 C 230.333 129.229,230.446 129.333,230.583 129.333 C 230.721 129.333,230.833 129.446,230.833 129.583 C 230.833 129.721,230.905 129.833,230.993 129.833 C 231.081 129.833,232.892 131.558,235.018 133.667 C 237.144 135.775,238.936 137.500,239.001 137.500 C 239.067 137.500,239.262 137.693,239.435 137.929 C 239.875 138.529,240.465 139.167,240.581 139.167 C 240.634 139.167,241.564 140.048,242.646 141.125 C 243.729 142.202,245.733 144.171,247.099 145.500 C 251.016 149.310,251.131 150.358,247.981 153.490 C 243.958 157.491,240.646 160.667,240.497 160.667 C 240.407 160.667,240.333 160.779,240.333 160.917 C 240.333 161.054,240.221 161.167,240.083 161.167 C 239.946 161.167,239.833 161.230,239.833 161.307 C 239.833 161.485,239.111 162.333,238.960 162.333 C 238.780 162.333,237.000 164.150,237.000 164.333 C 237.000 164.425,236.887 164.500,236.750 164.500 C 236.612 164.500,236.500 164.612,236.500 164.750 C 236.500 164.887,236.438 165.000,236.362 165.000 C 236.286 165.000,235.078 166.125,233.678 167.500 C 232.277 168.875,231.064 170.000,230.982 170.000 C 230.900 170.000,230.833 170.112,230.833 170.250 C 230.833 170.387,230.721 170.500,230.583 170.500 C 230.446 170.500,230.333 170.604,230.333 170.731 C 230.333 170.858,230.165 171.074,229.958 171.211 C 229.530 171.495,228.667 172.282,228.667 172.388 C 228.667 172.498,227.384 173.833,227.279 173.833 C 227.227 173.833,225.803 175.202,224.113 176.875 C 222.423 178.548,219.108 181.792,216.747 184.083 C 214.385 186.375,211.945 188.756,211.323 189.375 C 210.701 189.994,210.111 190.500,210.013 190.500 C 209.914 190.500,209.833 190.587,209.833 190.692 C 209.833 190.920,208.558 192.167,208.326 192.167 C 208.239 192.167,208.167 192.279,208.167 192.417 C 208.167 192.554,208.054 192.667,207.917 192.667 C 207.779 192.667,207.667 192.779,207.667 192.917 C 207.667 193.054,207.607 193.167,207.533 193.167 C 207.339 193.167,204.833 195.646,204.833 195.838 C 204.833 195.927,204.763 196.000,204.677 196.000 C 204.592 196.000,204.085 196.452,203.552 197.005 C 200.905 199.750,199.438 199.456,195.346 195.361 C 193.865 193.879,192.581 192.667,192.493 192.667 C 192.405 192.667,192.333 192.588,192.333 192.492 C 192.333 192.300,191.628 191.600,191.042 191.211 C 190.835 191.074,190.667 190.858,190.667 190.731 C 190.667 190.604,190.554 190.500,190.417 190.500 C 190.279 190.500,190.167 190.387,190.167 190.250 C 190.167 190.112,190.082 190.000,189.977 190.000 C 189.755 190.000,189.000 189.221,189.000 188.991 C 189.000 188.904,188.887 188.833,188.750 188.833 C 188.612 188.833,188.500 188.721,188.500 188.583 C 188.500 188.446,188.406 188.332,188.292 188.330 C 188.177 188.329,187.472 187.710,186.724 186.955 C 185.977 186.201,184.049 184.308,182.440 182.750 C 180.831 181.192,177.360 177.798,174.728 175.208 C 172.096 172.619,169.880 170.500,169.804 170.500 C 169.729 170.500,169.667 170.430,169.667 170.344 C 169.667 170.204,167.862 168.333,167.727 168.333 C 167.697 168.333,165.916 166.590,163.770 164.458 C 161.624 162.327,159.073 159.812,158.101 158.869 C 157.129 157.926,156.333 157.082,156.333 156.994 C 156.333 156.906,156.271 156.833,156.196 156.833 C 156.035 156.833,153.530 154.532,152.113 153.083 C 150.542 151.477,150.137 150.042,150.810 148.470 C 151.119 147.750,154.624 144.107,155.798 143.287 C 156.089 143.083,156.329 142.823,156.330 142.708 C 156.332 142.594,156.391 142.500,156.462 142.500 C 156.584 142.500,157.331 141.780,159.098 139.958 C 159.521 139.523,159.892 139.167,159.924 139.167 C 159.955 139.167,161.333 137.817,162.986 136.167 C 164.639 134.517,166.069 133.167,166.163 133.167 C 166.257 133.167,166.333 133.092,166.333 133.000 C 166.333 132.850,167.585 131.500,167.724 131.500 C 167.861 131.500,169.667 129.631,169.667 129.489 C 169.667 129.404,169.732 129.333,169.811 129.333 C 169.890 129.333,172.103 127.215,174.729 124.625 C 177.355 122.035,180.673 118.792,182.103 117.417 C 183.532 116.042,185.463 114.149,186.393 113.210 C 187.323 112.271,188.177 111.503,188.292 111.502 C 188.406 111.501,188.500 111.388,188.500 111.250 C 188.500 111.112,188.612 111.000,188.750 111.000 C 188.887 111.000,189.000 110.888,189.000 110.750 C 189.000 110.612,189.072 110.500,189.159 110.500 C 189.366 110.500,190.167 109.699,190.167 109.492 C 190.167 109.405,190.279 109.333,190.417 109.333 C 190.554 109.333,190.667 109.221,190.667 109.083 C 190.667 108.946,190.723 108.832,190.792 108.831 C 190.992 108.828,192.333 107.531,192.333 107.340 C 192.333 107.245,192.406 107.167,192.494 107.167 C 192.582 107.167,193.863 105.954,195.340 104.473 C 198.789 101.013,199.940 100.492,201.914 101.498 M197.750 112.528 C 196.163 114.127,195.550 114.841,195.833 114.761 C 197.268 114.358,197.866 114.311,200.870 114.365 C 203.177 114.406,204.218 114.485,204.362 114.629 C 204.475 114.741,204.694 114.833,204.849 114.833 C 205.022 114.833,204.450 114.151,203.382 113.083 C 202.419 112.121,201.565 111.333,201.483 111.333 C 201.400 111.333,201.333 111.261,201.333 111.173 C 201.333 110.965,200.470 110.165,200.252 110.172 C 200.159 110.175,199.033 111.235,197.750 112.528 M197.167 122.019 C 196.846 122.102,195.983 122.278,195.250 122.410 C 193.395 122.742,192.148 123.056,191.719 123.296 C 191.519 123.408,191.200 123.500,191.010 123.500 C 190.821 123.500,190.386 123.650,190.044 123.833 C 189.701 124.017,189.289 124.167,189.127 124.167 C 188.966 124.167,188.833 124.240,188.833 124.330 C 188.833 124.420,188.649 124.540,188.424 124.597 C 188.198 124.653,187.926 124.805,187.820 124.933 C 187.713 125.062,187.490 125.167,187.325 125.167 C 187.159 125.167,186.925 125.261,186.804 125.377 C 186.682 125.493,186.396 125.683,186.167 125.800 C 185.489 126.147,182.745 127.917,182.500 128.165 C 182.454 128.212,182.154 128.431,181.833 128.652 C 181.204 129.086,181.221 129.071,179.773 130.372 C 179.236 130.855,178.721 131.278,178.628 131.312 C 178.536 131.346,177.351 132.471,175.994 133.812 C 174.637 135.153,172.433 137.323,171.097 138.635 C 169.760 139.947,168.667 141.074,168.667 141.140 C 168.667 141.352,171.743 144.302,172.000 144.336 C 172.424 144.393,173.000 144.140,173.000 143.897 C 173.000 143.770,173.094 143.665,173.208 143.662 C 173.323 143.660,173.604 143.399,173.833 143.083 C 174.063 142.768,174.309 142.507,174.382 142.505 C 174.545 142.499,175.828 141.130,175.831 140.958 C 175.832 140.890,175.908 140.833,176.000 140.833 C 176.092 140.833,176.317 140.683,176.500 140.500 C 176.683 140.317,176.833 140.092,176.833 140.000 C 176.833 139.908,176.899 139.833,176.980 139.833 C 177.060 139.833,178.397 138.577,179.951 137.042 C 182.884 134.142,183.467 133.603,184.167 133.142 C 184.396 132.992,184.736 132.729,184.923 132.559 C 185.541 131.996,186.316 131.500,186.577 131.500 C 186.718 131.500,186.833 131.423,186.833 131.330 C 186.833 131.236,187.040 131.068,187.292 130.957 C 187.544 130.845,187.849 130.659,187.970 130.544 C 188.091 130.428,188.326 130.333,188.491 130.333 C 188.657 130.333,188.886 130.221,189.000 130.083 C 189.114 129.946,189.339 129.833,189.500 129.833 C 189.661 129.833,189.886 129.721,190.000 129.583 C 190.114 129.446,190.330 129.331,190.479 129.328 C 190.628 129.325,191.050 129.177,191.417 129.000 C 191.783 128.823,192.295 128.675,192.553 128.672 C 192.811 128.669,193.184 128.580,193.382 128.474 C 193.579 128.368,194.268 128.221,194.912 128.147 C 195.556 128.073,196.421 127.938,196.833 127.847 C 198.017 127.586,201.014 127.628,201.833 127.917 C 202.223 128.054,202.977 128.167,203.509 128.167 C 204.147 128.167,204.561 128.252,204.726 128.417 C 204.864 128.554,205.263 128.669,205.613 128.672 C 205.963 128.675,206.550 128.823,206.917 129.000 C 207.283 129.177,207.700 129.325,207.843 129.328 C 207.986 129.331,208.249 129.443,208.426 129.578 C 208.604 129.713,208.881 129.825,209.042 129.828 C 209.202 129.831,209.333 129.905,209.333 129.994 C 209.333 130.082,209.630 130.234,209.993 130.331 C 210.356 130.429,210.695 130.577,210.746 130.661 C 210.798 130.744,211.244 131.004,211.739 131.237 C 212.233 131.471,212.663 131.720,212.694 131.790 C 212.725 131.860,213.163 132.123,213.668 132.374 C 214.172 132.626,214.788 133.020,215.035 133.249 C 215.283 133.479,215.560 133.667,215.651 133.667 C 215.742 133.667,215.877 133.764,215.950 133.883 C 216.023 134.003,216.346 134.280,216.667 134.501 C 217.305 134.940,217.792 135.367,219.513 137.000 C 220.141 137.596,221.220 138.605,221.911 139.243 C 222.602 139.880,223.167 140.499,223.167 140.618 C 223.167 140.736,223.239 140.833,223.326 140.833 C 223.558 140.833,224.833 142.080,224.833 142.308 C 224.833 142.413,224.919 142.500,225.025 142.500 C 225.130 142.500,225.661 142.931,226.206 143.458 C 227.926 145.123,231.542 148.660,234.127 151.208 C 236.932 153.972,236.802 153.911,237.864 152.954 C 241.461 149.713,241.273 150.026,240.208 149.042 C 238.454 147.422,238.167 147.132,238.167 146.986 C 238.167 146.902,238.094 146.833,238.005 146.833 C 237.848 146.833,234.440 143.553,228.999 138.167 C 227.564 136.746,226.208 135.427,225.987 135.236 C 225.765 135.045,225.308 134.577,224.971 134.195 C 224.633 133.813,224.296 133.498,224.221 133.495 C 224.145 133.493,223.896 133.232,223.667 132.917 C 223.438 132.601,223.191 132.340,223.119 132.338 C 223.048 132.335,222.769 132.108,222.500 131.833 C 222.231 131.558,221.952 131.330,221.881 131.326 C 221.809 131.322,221.232 130.837,220.599 130.248 C 219.966 129.658,219.141 128.967,218.766 128.713 C 218.390 128.458,217.984 128.156,217.863 128.042 C 217.742 127.927,217.574 127.833,217.490 127.833 C 217.298 127.833,215.770 126.682,215.694 126.481 C 215.664 126.400,215.536 126.333,215.411 126.333 C 215.286 126.333,214.861 126.118,214.467 125.855 C 214.073 125.592,213.281 125.164,212.708 124.904 C 212.135 124.644,211.667 124.371,211.667 124.299 C 211.667 124.226,211.534 124.167,211.373 124.167 C 211.211 124.167,210.799 124.017,210.456 123.833 C 210.114 123.650,209.677 123.500,209.485 123.500 C 209.292 123.500,208.936 123.391,208.692 123.258 C 208.449 123.124,207.875 122.931,207.417 122.827 C 206.652 122.655,206.099 122.539,203.519 122.016 C 202.455 121.800,198.001 121.802,197.167 122.019 M196.417 135.414 C 196.142 135.539,195.448 135.694,194.875 135.757 C 194.302 135.820,193.833 135.938,193.833 136.019 C 193.833 136.100,193.701 136.167,193.539 136.167 C 193.377 136.167,192.965 136.317,192.623 136.500 C 192.281 136.683,191.898 136.833,191.771 136.833 C 191.644 136.833,191.447 136.946,191.333 137.083 C 191.219 137.221,191.027 137.333,190.906 137.333 C 190.784 137.333,190.400 137.595,190.051 137.916 C 189.702 138.236,189.349 138.499,189.266 138.499 C 189.183 138.500,188.771 138.846,188.349 139.268 C 187.416 140.204,183.239 144.269,180.031 147.364 C 178.731 148.618,177.667 149.725,177.667 149.822 C 177.667 149.979,178.652 150.976,183.792 156.019 C 184.456 156.671,185.000 157.271,185.000 157.352 C 185.000 157.434,185.112 157.500,185.250 157.500 C 185.387 157.500,185.500 157.612,185.500 157.750 C 185.500 157.887,185.580 158.000,185.678 158.000 C 185.776 158.000,186.282 158.343,186.803 158.762 C 188.724 160.308,190.096 161.333,190.242 161.333 C 190.294 161.333,190.710 161.596,191.167 161.917 C 191.623 162.237,192.112 162.500,192.254 162.500 C 192.395 162.500,192.554 162.612,192.606 162.750 C 192.661 162.893,192.910 163.000,193.190 163.000 C 193.458 163.000,193.717 163.103,193.765 163.230 C 193.815 163.358,194.214 163.508,194.670 163.568 C 195.119 163.628,195.526 163.741,195.575 163.819 C 195.876 164.306,201.322 164.704,202.647 164.336 C 202.979 164.244,203.515 164.168,203.839 164.168 C 204.163 164.167,204.855 164.017,205.377 163.833 C 205.898 163.650,206.407 163.500,206.508 163.500 C 206.608 163.500,206.803 163.387,206.940 163.250 C 207.078 163.112,207.337 163.000,207.517 163.000 C 207.697 163.000,207.887 162.887,207.940 162.750 C 207.992 162.612,208.172 162.500,208.339 162.500 C 208.506 162.500,208.742 162.406,208.863 162.292 C 209.336 161.845,210.645 160.833,210.751 160.833 C 210.904 160.833,211.222 160.527,216.977 154.828 C 222.724 149.139,222.281 149.905,220.673 148.431 C 219.210 147.090,217.253 145.217,215.216 143.208 C 214.077 142.085,213.112 141.167,213.071 141.167 C 213.031 141.167,212.454 140.709,211.790 140.149 C 211.126 139.589,210.471 139.087,210.333 139.035 C 210.068 138.933,209.141 138.318,209.000 138.151 C 208.910 138.043,208.147 137.622,207.542 137.346 C 207.335 137.252,207.167 137.098,207.167 137.004 C 207.167 136.910,206.994 136.833,206.783 136.833 C 206.572 136.833,206.319 136.753,206.220 136.654 C 206.122 136.555,205.788 136.410,205.479 136.332 C 205.170 136.253,204.579 136.076,204.167 135.937 C 202.119 135.250,197.463 134.935,196.417 135.414 M201.300 140.033 C 201.672 140.405,201.537 141.015,201.042 141.203 C 199.506 141.786,198.285 145.424,199.070 147.078 C 199.215 147.384,199.333 147.722,199.333 147.830 C 199.333 148.024,200.475 149.534,200.698 149.635 C 200.761 149.664,201.136 149.934,201.531 150.236 C 202.063 150.642,202.499 150.816,203.206 150.904 C 203.731 150.970,204.205 151.093,204.257 151.179 C 204.316 151.274,204.475 151.269,204.666 151.167 C 204.838 151.075,205.158 151.000,205.378 151.000 C 205.598 151.000,205.832 150.946,205.898 150.880 C 205.964 150.814,206.277 150.782,206.593 150.809 C 206.995 150.844,207.198 150.780,207.268 150.596 C 207.324 150.452,207.462 150.333,207.575 150.333 C 207.689 150.333,207.917 150.183,208.083 150.000 C 208.249 149.817,208.481 149.667,208.598 149.667 C 208.715 149.667,208.864 149.498,208.928 149.292 C 209.170 148.517,210.077 148.409,210.348 149.122 C 210.531 149.603,210.394 151.952,210.166 152.250 C 210.096 152.342,209.984 152.679,209.917 153.000 C 209.850 153.321,209.728 153.666,209.647 153.767 C 209.566 153.869,209.319 154.291,209.098 154.706 C 208.614 155.616,208.162 156.167,207.898 156.167 C 207.791 156.167,207.660 156.336,207.608 156.543 C 207.556 156.751,207.286 157.055,207.007 157.219 C 206.728 157.384,206.500 157.590,206.500 157.676 C 206.500 157.763,206.387 157.833,206.250 157.833 C 206.112 157.833,206.000 157.898,206.000 157.976 C 206.000 158.170,204.378 159.000,203.999 159.000 C 203.831 159.000,203.665 159.089,203.629 159.197 C 203.426 159.804,197.575 159.808,196.969 159.202 C 196.858 159.091,196.600 159.000,196.395 159.000 C 196.191 159.000,195.921 158.897,195.796 158.772 C 195.670 158.647,195.420 158.497,195.239 158.440 C 195.058 158.382,194.663 158.110,194.361 157.834 C 194.060 157.559,193.766 157.333,193.709 157.333 C 193.558 157.333,192.833 156.631,192.833 156.485 C 192.833 156.416,192.535 156.050,192.171 155.671 C 191.414 154.883,190.667 153.502,190.667 152.891 C 190.667 152.663,190.550 152.360,190.408 152.217 C 190.078 151.888,190.138 147.915,190.486 147.000 C 190.717 146.392,191.425 144.897,191.802 144.219 C 192.030 143.811,193.763 142.000,193.926 142.000 C 193.978 142.000,194.297 141.777,194.637 141.504 C 194.977 141.231,195.493 140.960,195.783 140.902 C 196.074 140.844,196.352 140.692,196.401 140.565 C 196.456 140.422,196.739 140.333,197.141 140.333 C 197.517 140.333,197.880 140.228,198.000 140.083 C 198.264 139.765,200.991 139.724,201.300 140.033 M161.745 147.750 C 161.048 148.438,160.439 149.000,160.391 149.000 C 160.249 149.000,159.678 149.735,159.678 149.917 C 159.678 150.104,160.251 150.833,160.398 150.833 C 160.451 150.833,161.414 151.735,162.538 152.837 C 163.663 153.939,165.746 155.969,167.167 157.348 C 168.587 158.727,170.746 160.825,171.964 162.011 C 173.181 163.197,174.213 164.167,174.256 164.167 C 174.360 164.167,175.000 164.811,175.000 164.917 C 175.000 165.074,176.333 166.333,176.500 166.333 C 176.592 166.333,176.667 166.446,176.667 166.583 C 176.667 166.721,176.779 166.833,176.917 166.833 C 177.054 166.833,177.167 166.892,177.167 166.963 C 177.167 167.035,177.745 167.579,178.453 168.172 C 179.160 168.765,179.993 169.495,180.303 169.794 C 180.612 170.092,181.271 170.606,181.766 170.935 C 182.261 171.263,182.667 171.600,182.667 171.683 C 182.667 171.766,182.782 171.833,182.922 171.833 C 183.062 171.833,183.218 171.939,183.267 172.068 C 183.317 172.198,183.521 172.345,183.720 172.395 C 183.920 172.446,184.321 172.706,184.612 172.973 C 184.903 173.239,185.334 173.506,185.570 173.565 C 185.807 173.624,186.000 173.747,186.000 173.837 C 186.000 173.926,186.102 174.000,186.228 174.000 C 186.353 174.000,186.646 174.150,186.879 174.333 C 187.112 174.517,187.413 174.667,187.548 174.667 C 187.682 174.667,187.886 174.779,188.000 174.917 C 188.114 175.054,188.339 175.167,188.500 175.167 C 188.661 175.167,188.886 175.279,189.000 175.417 C 189.114 175.554,189.331 175.667,189.481 175.667 C 189.632 175.667,190.035 175.817,190.377 176.000 C 190.719 176.183,191.119 176.333,191.266 176.333 C 191.413 176.333,191.769 176.435,192.058 176.559 C 192.866 176.905,193.940 177.174,195.583 177.441 C 198.968 177.990,199.845 178.052,201.571 177.865 C 205.018 177.492,206.258 177.314,206.550 177.153 C 206.715 177.062,207.165 176.921,207.550 176.840 C 208.312 176.679,209.447 176.292,210.275 175.909 C 210.564 175.776,210.953 175.667,211.140 175.667 C 211.327 175.667,211.530 175.587,211.590 175.490 C 211.650 175.392,211.861 175.243,212.058 175.157 C 212.255 175.071,212.529 174.938,212.667 174.862 C 212.804 174.786,213.254 174.547,213.667 174.331 C 214.079 174.116,214.642 173.822,214.917 173.678 C 215.192 173.534,215.477 173.323,215.550 173.208 C 215.623 173.094,215.773 173.000,215.883 172.999 C 215.993 172.999,216.323 172.774,216.616 172.499 C 216.909 172.225,217.217 172.000,217.300 172.000 C 217.384 172.000,217.796 171.737,218.216 171.417 C 218.636 171.096,219.028 170.833,219.088 170.833 C 219.190 170.833,219.689 170.395,220.921 169.224 C 221.225 168.935,221.582 168.635,221.715 168.557 C 222.086 168.340,224.120 166.502,224.892 165.686 C 225.272 165.284,225.765 164.796,225.986 164.603 C 226.208 164.409,227.558 163.086,228.986 161.663 L 231.583 159.076 230.951 158.496 C 230.604 158.178,230.248 157.892,230.160 157.861 C 230.072 157.831,230.000 157.748,230.000 157.678 C 230.000 157.491,228.233 155.728,227.928 155.611 C 227.784 155.556,227.667 155.433,227.667 155.339 C 227.667 155.244,227.517 155.167,227.333 155.167 C 227.148 155.167,227.000 155.278,227.000 155.417 C 227.000 155.554,226.934 155.667,226.853 155.667 C 226.772 155.667,225.452 156.904,223.919 158.417 C 222.386 159.929,221.065 161.167,220.983 161.167 C 220.901 161.167,220.833 161.242,220.833 161.333 C 220.833 161.498,220.238 162.167,220.091 162.167 C 219.999 162.167,219.167 162.989,219.167 163.080 C 219.167 163.143,217.314 165.000,217.251 165.000 C 217.235 165.000,216.906 165.300,216.521 165.666 C 215.572 166.568,213.180 168.333,212.905 168.333 C 212.783 168.333,212.623 168.427,212.550 168.542 C 212.381 168.806,211.096 169.500,210.776 169.500 C 210.644 169.500,210.492 169.612,210.440 169.750 C 210.385 169.893,210.136 170.000,209.859 170.000 C 209.592 170.000,209.287 170.105,209.181 170.233 C 209.075 170.360,208.718 170.516,208.387 170.578 C 208.056 170.640,207.678 170.798,207.547 170.929 C 207.412 171.064,206.988 171.167,206.566 171.167 C 206.156 171.167,205.655 171.271,205.452 171.398 C 204.516 171.985,195.574 171.974,195.195 171.386 C 195.133 171.291,194.682 171.175,194.191 171.129 C 193.700 171.083,193.250 170.970,193.191 170.877 C 193.132 170.784,192.821 170.652,192.500 170.583 C 192.179 170.514,191.769 170.354,191.588 170.229 C 191.407 170.103,191.098 170.000,190.900 170.000 C 190.702 170.000,190.454 169.895,190.348 169.767 C 190.242 169.640,189.900 169.487,189.590 169.429 C 189.279 169.371,189.000 169.269,188.970 169.203 C 188.904 169.056,188.076 168.572,187.458 168.321 C 187.206 168.218,187.000 168.066,187.000 167.984 C 187.000 167.901,186.863 167.833,186.696 167.833 C 186.301 167.833,183.421 165.719,182.212 164.542 C 181.906 164.244,181.624 164.000,181.585 164.000 C 181.444 164.000,180.667 163.147,180.667 162.992 C 180.667 162.905,180.565 162.833,180.441 162.833 C 180.317 162.833,179.998 162.636,179.733 162.394 C 179.467 162.153,178.867 161.609,178.399 161.186 C 177.931 160.763,177.426 160.304,177.277 160.167 C 177.128 160.029,176.178 159.073,175.167 158.042 C 174.155 157.010,173.254 156.167,173.164 156.167 C 173.074 156.167,173.000 156.054,173.000 155.917 C 173.000 155.779,172.938 155.667,172.862 155.667 C 172.726 155.667,169.667 152.698,169.667 152.567 C 169.667 152.432,169.049 151.888,168.779 151.784 C 168.626 151.725,168.500 151.562,168.500 151.422 C 168.500 151.282,168.387 151.167,168.250 151.167 C 168.112 151.167,168.000 151.092,168.000 151.000 C 168.000 150.808,167.394 150.168,167.208 150.164 C 167.017 150.159,166.333 149.394,166.333 149.185 C 166.333 149.083,166.261 149.000,166.174 149.000 C 165.942 149.000,164.667 147.753,164.667 147.526 C 164.667 147.420,164.596 147.333,164.509 147.333 C 164.422 147.333,164.148 147.146,163.901 146.917 C 163.258 146.321,163.150 146.363,161.745 147.750 M197.694 187.226 C 199.101 188.631,200.100 189.500,200.306 189.500 C 200.512 189.500,201.508 188.632,202.914 187.225 L 205.189 184.950 204.136 185.068 C 200.415 185.486,199.910 185.486,196.417 185.071 L 195.417 184.952 197.694 187.226 " stroke="none" fill="#ffffff" fill-rule="evenodd"></path><path id="path2" d="M199.043 102.162 C 198.653 102.338,197.863 102.956,197.286 103.533 C 196.709 104.111,193.776 106.983,190.768 109.917 C 187.760 112.850,184.283 116.244,183.041 117.458 C 181.799 118.673,180.719 119.667,180.641 119.667 C 180.564 119.667,180.500 119.733,180.500 119.814 C 180.500 119.895,179.818 120.627,178.985 121.439 C 178.152 122.252,175.546 124.814,173.194 127.133 C 170.841 129.453,167.276 132.940,165.271 134.883 C 155.061 144.776,151.667 148.149,151.667 148.400 C 151.667 148.524,151.554 148.719,151.417 148.833 C 151.252 148.970,151.167 149.341,151.167 149.917 C 151.167 150.492,151.252 150.864,151.417 151.000 C 151.554 151.114,151.667 151.306,151.667 151.427 C 151.667 151.666,154.255 154.269,160.520 160.333 C 164.662 164.343,169.717 169.286,174.666 174.167 C 176.200 175.679,178.140 177.577,178.977 178.385 C 179.815 179.193,180.500 179.924,180.500 180.010 C 180.500 180.096,180.566 180.167,180.647 180.167 C 180.728 180.167,181.954 181.310,183.372 182.708 C 184.790 184.106,188.266 187.500,191.096 190.250 C 193.927 193.000,196.713 195.723,197.289 196.300 C 198.908 197.925,200.087 198.318,201.478 197.695 C 202.119 197.408,202.987 196.617,207.086 192.583 C 208.018 191.667,210.854 188.892,213.390 186.417 C 215.925 183.942,220.168 179.779,222.818 177.167 C 227.983 172.075,237.164 163.099,240.389 159.987 C 248.313 152.342,249.333 151.193,249.333 149.917 C 249.333 148.564,249.001 148.198,238.735 138.250 C 234.344 133.996,229.227 128.986,222.817 122.667 C 218.665 118.573,214.264 114.264,207.072 107.250 C 206.133 106.333,204.639 104.875,203.754 104.010 C 201.534 101.840,200.578 101.465,199.043 102.162 M201.372 110.125 C 207.184 115.677,207.298 115.904,204.014 115.409 C 201.946 115.098,198.858 115.101,196.603 115.418 C 194.163 115.760,193.523 115.333,194.893 114.274 C 195.181 114.052,196.429 112.854,197.667 111.612 C 200.215 109.055,200.241 109.045,201.372 110.125 M205.333 121.557 C 207.058 121.915,208.553 122.336,208.742 122.516 C 208.829 122.599,209.058 122.667,209.251 122.667 C 209.445 122.667,209.749 122.777,209.926 122.911 C 210.104 123.046,210.362 123.161,210.500 123.167 C 210.637 123.173,211.050 123.323,211.417 123.500 C 211.783 123.677,212.168 123.825,212.271 123.828 C 212.375 123.831,212.553 123.946,212.667 124.083 C 212.781 124.221,213.017 124.333,213.192 124.333 C 213.367 124.333,213.554 124.446,213.606 124.583 C 213.659 124.721,213.834 124.833,213.995 124.833 C 214.157 124.833,214.467 124.971,214.686 125.138 C 214.904 125.306,215.196 125.493,215.333 125.554 C 215.620 125.681,215.900 125.858,217.075 126.653 C 218.425 127.567,218.911 127.910,219.000 128.012 C 219.046 128.064,219.678 128.572,220.404 129.142 C 221.916 130.327,224.922 133.158,230.253 138.417 C 232.297 140.433,235.701 143.762,237.818 145.813 C 240.527 148.439,241.667 149.651,241.667 149.908 C 241.667 150.155,240.952 150.974,239.439 152.460 C 237.081 154.776,236.863 154.890,236.146 154.184 C 233.875 151.948,221.797 140.150,220.500 138.901 C 218.709 137.175,215.665 134.552,214.864 134.042 C 214.618 133.886,214.379 133.718,214.333 133.671 C 214.113 133.440,213.162 132.833,213.021 132.833 C 212.933 132.833,212.836 132.774,212.806 132.702 C 212.703 132.459,209.967 130.952,208.917 130.560 C 202.547 128.180,198.452 127.925,192.167 129.517 C 191.754 129.622,191.218 129.811,190.974 129.937 C 190.731 130.063,190.421 130.167,190.286 130.167 C 190.151 130.167,189.947 130.279,189.833 130.417 C 189.719 130.554,189.478 130.667,189.298 130.667 C 189.117 130.667,188.779 130.817,188.545 131.000 C 188.312 131.183,188.019 131.333,187.894 131.333 C 187.769 131.333,187.667 131.408,187.667 131.500 C 187.667 131.592,187.562 131.667,187.435 131.667 C 186.983 131.667,183.549 134.487,181.224 136.769 C 175.467 142.417,172.454 145.254,172.161 145.303 C 171.668 145.384,168.000 141.677,168.000 141.097 C 168.000 140.754,168.410 140.257,169.840 138.869 C 170.852 137.887,172.828 135.958,174.232 134.583 C 177.877 131.012,179.633 129.404,180.917 128.461 C 181.008 128.393,181.308 128.163,181.583 127.948 C 182.277 127.406,184.315 126.000,184.408 126.000 C 184.449 126.000,184.813 125.778,185.216 125.506 C 185.618 125.234,186.128 124.934,186.349 124.840 C 186.570 124.745,186.862 124.598,187.000 124.513 C 187.536 124.181,189.803 123.166,190.020 123.161 C 190.147 123.158,190.396 123.046,190.574 122.911 C 190.751 122.777,191.055 122.667,191.249 122.667 C 191.442 122.667,191.671 122.599,191.758 122.516 C 191.975 122.310,193.789 121.845,195.491 121.559 C 196.266 121.429,196.940 121.283,196.989 121.233 C 197.187 121.035,204.114 121.304,205.333 121.557 M200.917 134.505 C 201.375 134.587,202.230 134.732,202.818 134.828 C 203.405 134.924,203.968 135.068,204.068 135.149 C 204.168 135.229,204.512 135.350,204.833 135.417 C 205.154 135.484,205.604 135.634,205.833 135.750 C 206.063 135.866,206.887 136.275,207.667 136.659 C 209.683 137.653,209.658 137.637,211.881 139.356 C 215.043 141.802,222.667 149.198,222.667 149.821 C 222.667 150.209,221.935 150.963,214.647 158.092 C 209.504 163.123,207.034 164.589,202.833 165.105 C 200.599 165.379,196.490 165.123,195.917 164.674 C 195.825 164.602,195.460 164.491,195.104 164.427 C 194.749 164.363,194.337 164.246,194.188 164.168 C 194.039 164.089,193.190 163.687,192.303 163.273 C 188.840 161.661,186.901 160.066,178.958 152.298 C 176.298 149.696,176.312 149.928,178.678 147.667 C 179.685 146.704,182.007 144.444,183.838 142.645 C 185.669 140.845,187.524 139.089,187.959 138.742 C 188.394 138.395,188.827 138.030,188.921 137.931 C 189.162 137.675,189.674 137.354,190.208 137.124 C 190.460 137.016,190.667 136.873,190.667 136.807 C 190.667 136.633,192.993 135.526,193.626 135.400 C 193.924 135.340,194.167 135.231,194.167 135.156 C 194.167 135.081,194.523 134.972,194.958 134.913 C 195.394 134.853,196.237 134.705,196.833 134.583 C 198.089 134.325,199.726 134.294,200.917 134.505 M198.401 140.748 C 196.605 141.138,195.316 141.784,193.917 142.993 C 193.248 143.571,192.167 144.874,192.167 145.102 C 192.167 145.169,192.066 145.342,191.942 145.487 C 190.167 147.565,190.866 154.054,193.034 155.634 C 193.199 155.754,193.336 155.942,193.340 156.051 C 193.346 156.237,193.950 156.728,195.292 157.637 C 198.458 159.781,204.158 159.180,206.833 156.419 C 207.063 156.183,207.419 155.828,207.625 155.631 C 207.831 155.434,208.000 155.216,208.000 155.145 C 208.000 155.074,208.208 154.694,208.462 154.300 C 209.635 152.483,210.166 148.849,209.069 150.154 C 208.831 150.436,208.531 150.667,208.402 150.667 C 208.272 150.667,208.167 150.740,208.167 150.830 C 208.167 150.920,207.960 151.043,207.708 151.103 C 207.456 151.162,207.112 151.332,206.943 151.479 C 206.381 151.968,202.968 151.837,201.906 151.286 C 199.755 150.168,198.014 147.599,198.002 145.526 C 197.996 144.328,199.210 141.601,199.995 141.051 C 200.766 140.512,200.083 140.382,198.401 140.748 M164.471 146.583 C 164.944 147.087,165.352 147.500,165.376 147.500 C 165.400 147.500,166.398 148.456,167.594 149.625 C 168.789 150.794,171.608 153.550,173.857 155.750 C 180.525 162.270,181.703 163.385,182.667 164.083 C 183.171 164.448,183.696 164.871,183.833 165.022 C 184.055 165.267,186.696 167.096,187.579 167.616 C 187.765 167.726,188.554 168.124,189.333 168.502 C 190.112 168.879,190.949 169.296,191.192 169.428 C 191.436 169.559,191.762 169.667,191.917 169.667 C 192.072 169.667,192.398 169.770,192.641 169.896 C 194.985 171.112,204.200 171.535,206.144 170.515 C 206.294 170.437,206.754 170.316,207.167 170.248 C 207.579 170.180,208.065 170.022,208.245 169.896 C 208.426 169.770,208.695 169.667,208.844 169.667 C 209.162 169.667,212.273 168.106,212.669 167.748 C 212.820 167.612,213.027 167.500,213.130 167.500 C 213.233 167.500,213.377 167.406,213.450 167.290 C 213.523 167.175,213.887 166.883,214.258 166.643 C 215.110 166.091,216.258 165.008,222.250 159.101 C 225.299 156.095,227.206 154.336,227.415 154.335 C 227.791 154.333,232.333 158.772,232.333 159.141 C 232.333 159.498,223.648 167.964,221.424 169.775 C 220.878 170.220,220.309 170.696,220.160 170.833 C 220.010 170.971,219.714 171.196,219.502 171.333 C 219.289 171.471,218.997 171.715,218.854 171.875 C 218.710 172.035,218.531 172.167,218.456 172.167 C 218.381 172.167,218.229 172.241,218.118 172.331 C 217.170 173.104,216.845 173.333,216.698 173.333 C 216.604 173.333,216.503 173.396,216.472 173.473 C 216.369 173.733,212.835 175.598,210.917 176.404 C 210.550 176.559,210.051 176.793,209.808 176.926 C 209.564 177.058,209.185 177.167,208.964 177.167 C 208.744 177.167,208.418 177.277,208.240 177.411 C 208.062 177.546,207.715 177.658,207.469 177.661 C 207.223 177.664,206.811 177.752,206.553 177.857 C 204.463 178.707,195.960 178.803,194.466 177.994 C 194.309 177.909,193.859 177.790,193.466 177.730 C 193.072 177.670,192.547 177.518,192.300 177.393 C 192.052 177.269,191.730 177.167,191.582 177.167 C 191.307 177.167,190.087 176.672,189.308 176.243 C 189.064 176.109,188.755 176.000,188.620 176.000 C 188.485 176.000,188.281 175.887,188.167 175.750 C 188.053 175.612,187.824 175.500,187.658 175.500 C 187.493 175.500,187.245 175.387,187.107 175.250 C 186.970 175.112,186.809 175.000,186.751 175.000 C 186.245 175.000,180.564 171.152,179.750 170.259 C 179.658 170.158,179.358 169.902,179.083 169.691 C 178.398 169.164,177.021 167.865,172.886 163.847 C 170.945 161.960,168.207 159.312,166.803 157.962 C 160.869 152.255,158.833 150.201,158.833 149.918 C 158.833 149.502,162.824 145.675,163.263 145.670 C 163.470 145.668,163.955 146.035,164.471 146.583 M198.724 184.488 C 199.626 184.555,201.014 184.551,201.807 184.480 C 207.801 183.940,207.842 183.425,201.394 189.671 C 200.274 190.756,200.226 190.745,198.512 189.042 C 197.705 188.240,196.397 186.967,195.606 186.214 C 193.646 184.349,193.667 184.064,195.750 184.248 C 196.483 184.312,197.822 184.420,198.724 184.488 " stroke="none" fill="#3d3d3f" fill-rule="evenodd"></path><path id="path3" d="M198.771 102.022 C 198.416 102.209,196.585 103.874,194.701 105.723 C 192.817 107.571,189.288 111.033,186.859 113.417 C 184.429 115.800,180.073 120.076,177.179 122.919 C 171.165 128.827,167.258 132.647,165.055 134.774 C 152.499 146.899,151.000 148.514,151.000 149.917 C 151.000 151.306,152.934 153.390,165.051 165.059 C 167.344 167.267,170.869 170.719,180.022 179.718 C 184.572 184.191,189.234 188.765,190.383 189.884 C 191.531 191.002,193.749 193.170,195.312 194.702 C 199.269 198.580,200.687 199.063,202.647 197.201 C 203.436 196.452,209.497 190.522,216.503 183.646 C 220.764 179.463,225.048 175.263,226.024 174.312 C 227.000 173.361,230.332 170.108,233.428 167.083 C 236.525 164.058,239.626 161.032,240.321 160.358 C 248.963 151.967,249.500 151.355,249.500 149.917 C 249.500 148.467,248.918 147.806,240.250 139.412 C 239.517 138.702,237.338 136.575,235.408 134.686 C 233.478 132.796,228.949 128.362,225.344 124.833 C 221.739 121.304,217.993 117.636,217.020 116.682 C 210.901 110.682,207.251 107.106,204.992 104.898 C 201.616 101.597,200.530 101.094,198.771 102.022 M201.471 102.135 C 201.841 102.301,202.869 103.145,203.754 104.010 C 204.639 104.875,206.133 106.333,207.072 107.250 C 214.264 114.264,218.665 118.573,222.817 122.667 C 229.227 128.986,234.344 133.996,238.735 138.250 C 249.001 148.198,249.333 148.564,249.333 149.917 C 249.333 151.193,248.313 152.342,240.389 159.987 C 237.164 163.099,227.983 172.075,222.818 177.167 C 220.168 179.779,215.925 183.942,213.390 186.417 C 210.854 188.892,208.018 191.667,207.086 192.583 C 202.987 196.617,202.119 197.408,201.478 197.695 C 200.087 198.318,198.908 197.925,197.289 196.300 C 196.713 195.723,193.927 193.000,191.096 190.250 C 188.266 187.500,184.790 184.106,183.372 182.708 C 181.954 181.310,180.728 180.167,180.647 180.167 C 180.566 180.167,180.500 180.096,180.500 180.010 C 180.500 179.924,179.815 179.193,178.977 178.385 C 178.140 177.577,176.200 175.679,174.666 174.167 C 169.717 169.286,164.662 164.343,160.520 160.333 C 154.255 154.269,151.667 151.666,151.667 151.427 C 151.667 151.306,151.554 151.114,151.417 151.000 C 151.252 150.864,151.167 150.492,151.167 149.917 C 151.167 149.341,151.252 148.970,151.417 148.833 C 151.554 148.719,151.667 148.524,151.667 148.400 C 151.667 148.149,155.061 144.776,165.271 134.883 C 167.276 132.940,170.841 129.453,173.194 127.133 C 175.546 124.814,178.152 122.252,178.985 121.439 C 179.818 120.627,180.500 119.895,180.500 119.814 C 180.500 119.733,180.564 119.667,180.641 119.667 C 180.719 119.667,181.799 118.673,183.041 117.458 C 184.283 116.244,187.760 112.850,190.768 109.917 C 193.776 106.983,196.709 104.111,197.286 103.533 C 198.907 101.910,200.088 101.516,201.471 102.135 M197.667 111.612 C 196.429 112.854,195.181 114.052,194.893 114.274 C 193.523 115.333,194.163 115.760,196.603 115.418 C 198.858 115.101,201.946 115.098,204.014 115.409 C 207.298 115.904,207.184 115.677,201.372 110.125 C 200.241 109.045,200.215 109.055,197.667 111.612 M203.227 112.256 C 206.239 115.213,206.331 115.419,204.545 115.213 C 203.115 115.049,197.826 115.044,196.119 115.207 C 195.079 115.306,194.804 115.284,194.732 115.098 C 194.611 114.780,199.802 109.678,200.253 109.672 C 200.466 109.668,201.553 110.613,203.227 112.256 M196.989 121.233 C 196.940 121.283,196.266 121.429,195.491 121.559 C 193.789 121.845,191.975 122.310,191.758 122.516 C 191.671 122.599,191.442 122.667,191.249 122.667 C 191.055 122.667,190.751 122.777,190.574 122.911 C 190.396 123.046,190.147 123.158,190.020 123.161 C 189.803 123.166,187.536 124.181,187.000 124.513 C 186.862 124.598,186.570 124.745,186.349 124.840 C 186.128 124.934,185.618 125.234,185.216 125.506 C 184.813 125.778,184.449 126.000,184.408 126.000 C 184.315 126.000,182.277 127.406,181.583 127.948 C 181.308 128.163,181.008 128.393,180.917 128.461 C 179.633 129.404,177.877 131.012,174.232 134.583 C 172.828 135.958,170.852 137.887,169.840 138.869 C 168.410 140.257,168.000 140.754,168.000 141.097 C 168.000 141.677,171.668 145.384,172.161 145.303 C 172.454 145.254,175.467 142.417,181.224 136.769 C 183.549 134.487,186.983 131.667,187.435 131.667 C 187.562 131.667,187.667 131.592,187.667 131.500 C 187.667 131.408,187.769 131.333,187.894 131.333 C 188.019 131.333,188.312 131.183,188.545 131.000 C 188.779 130.817,189.117 130.667,189.298 130.667 C 189.478 130.667,189.719 130.554,189.833 130.417 C 189.947 130.279,190.151 130.167,190.286 130.167 C 190.421 130.167,190.731 130.063,190.974 129.937 C 191.218 129.811,191.754 129.622,192.167 129.517 C 198.452 127.925,202.547 128.180,208.917 130.560 C 209.967 130.952,212.703 132.459,212.806 132.702 C 212.836 132.774,212.933 132.833,213.021 132.833 C 213.162 132.833,214.113 133.440,214.333 133.671 C 214.379 133.718,214.618 133.886,214.864 134.042 C 215.665 134.552,218.709 137.175,220.500 138.901 C 221.797 140.150,233.875 151.948,236.146 154.184 C 236.863 154.890,237.081 154.776,239.439 152.460 C 240.952 150.974,241.667 150.155,241.667 149.908 C 241.667 149.651,240.527 148.439,237.818 145.813 C 235.701 143.762,232.297 140.433,230.253 138.417 C 224.922 133.158,221.916 130.327,220.404 129.142 C 219.678 128.572,219.046 128.064,219.000 128.012 C 218.911 127.910,218.425 127.567,217.075 126.653 C 215.900 125.858,215.620 125.681,215.333 125.554 C 215.196 125.493,214.904 125.306,214.686 125.138 C 214.467 124.971,214.157 124.833,213.995 124.833 C 213.834 124.833,213.659 124.721,213.606 124.583 C 213.554 124.446,213.367 124.333,213.192 124.333 C 213.017 124.333,212.781 124.221,212.667 124.083 C 212.553 123.946,212.375 123.831,212.271 123.828 C 212.168 123.825,211.783 123.677,211.417 123.500 C 211.050 123.323,210.637 123.173,210.500 123.167 C 210.362 123.161,210.104 123.046,209.926 122.911 C 209.749 122.777,209.445 122.667,209.251 122.667 C 209.058 122.667,208.829 122.599,208.742 122.516 C 208.553 122.336,207.058 121.915,205.333 121.557 C 204.114 121.304,197.187 121.035,196.989 121.233 M204.417 121.661 C 206.482 121.995,207.102 122.143,208.667 122.679 C 210.349 123.255,210.910 123.476,211.828 123.924 C 212.329 124.169,212.892 124.437,213.078 124.519 C 215.148 125.435,219.654 128.611,222.250 130.983 C 226.704 135.053,241.333 149.562,241.333 149.909 C 241.333 150.430,237.323 154.380,236.869 154.306 C 236.590 154.261,230.796 148.713,223.844 141.833 C 215.039 133.121,210.847 130.365,203.917 128.737 C 202.018 128.290,196.166 128.285,194.333 128.727 C 188.509 130.134,186.007 131.714,179.523 138.078 C 173.464 144.023,172.422 144.994,172.098 144.997 C 171.677 145.001,168.167 141.534,168.167 141.115 C 168.167 140.831,172.425 136.540,177.500 131.709 C 180.086 129.248,183.689 126.541,186.000 125.323 C 186.412 125.105,186.862 124.843,187.000 124.740 C 187.358 124.473,190.650 123.064,191.789 122.691 C 195.807 121.376,200.356 121.005,204.417 121.661 M196.833 134.583 C 196.237 134.705,195.394 134.853,194.958 134.913 C 194.523 134.972,194.167 135.081,194.167 135.156 C 194.167 135.231,193.924 135.340,193.626 135.400 C 192.972 135.531,190.667 136.635,190.667 136.818 C 190.667 136.889,191.210 136.674,191.875 136.339 C 198.573 132.963,206.675 134.735,213.750 141.124 C 216.438 143.551,222.500 149.582,222.500 149.830 C 222.500 150.271,211.152 161.244,209.655 162.250 C 206.690 164.243,204.162 164.993,200.417 164.993 C 194.382 164.993,189.971 162.674,182.852 155.755 C 181.146 154.097,179.131 152.150,178.375 151.428 C 176.674 149.804,176.663 149.950,178.642 148.019 C 185.673 141.157,188.249 138.722,189.321 137.923 C 190.002 137.415,190.481 137.000,190.385 137.000 C 190.290 137.000,190.021 137.150,189.788 137.333 C 189.555 137.517,189.282 137.667,189.182 137.667 C 189.082 137.667,189.000 137.726,189.000 137.799 C 189.000 137.872,188.636 138.209,188.191 138.549 C 187.745 138.888,185.834 140.685,183.944 142.541 C 182.054 144.398,179.684 146.704,178.677 147.667 C 176.313 149.928,176.298 149.696,178.958 152.298 C 186.901 160.066,188.840 161.661,192.303 163.273 C 193.190 163.687,194.039 164.089,194.188 164.168 C 194.337 164.246,194.749 164.363,195.104 164.427 C 195.460 164.491,195.825 164.602,195.917 164.674 C 196.490 165.123,200.599 165.379,202.833 165.105 C 207.034 164.589,209.504 163.123,214.647 158.092 C 221.935 150.963,222.667 150.209,222.667 149.821 C 222.667 149.198,215.043 141.802,211.881 139.356 C 209.658 137.637,209.683 137.653,207.667 136.659 C 206.887 136.275,206.063 135.866,205.833 135.750 C 205.604 135.634,205.154 135.484,204.833 135.417 C 204.512 135.350,204.168 135.229,204.068 135.149 C 203.968 135.068,203.405 134.924,202.818 134.828 C 202.230 134.732,201.375 134.587,200.917 134.505 C 199.726 134.294,198.089 134.325,196.833 134.583 M198.333 140.524 C 195.284 141.027,192.219 143.657,191.174 146.667 C 189.021 152.867,193.600 159.156,200.274 159.164 C 203.718 159.169,206.393 157.793,208.258 155.059 C 209.999 152.506,210.639 148.025,208.995 149.897 C 207.553 151.539,204.058 152.141,202.020 151.098 C 198.158 149.122,197.171 144.311,200.028 141.391 C 201.045 140.351,200.638 140.143,198.333 140.524 M200.243 140.655 C 200.296 140.741,200.184 140.919,199.995 141.051 C 199.210 141.601,197.996 144.328,198.002 145.526 C 198.014 147.599,199.755 150.168,201.906 151.286 C 202.968 151.837,206.381 151.968,206.943 151.479 C 207.112 151.332,207.456 151.162,207.708 151.103 C 207.960 151.043,208.167 150.920,208.167 150.830 C 208.167 150.740,208.272 150.667,208.402 150.667 C 208.531 150.667,208.831 150.436,209.069 150.154 C 210.166 148.849,209.635 152.483,208.462 154.300 C 208.208 154.694,208.000 155.074,208.000 155.145 C 208.000 155.216,207.831 155.434,207.625 155.631 C 207.419 155.828,207.063 156.183,206.833 156.419 C 204.158 159.180,198.458 159.781,195.292 157.637 C 193.950 156.728,193.346 156.237,193.340 156.051 C 193.336 155.942,193.199 155.754,193.034 155.634 C 190.866 154.054,190.167 147.565,191.942 145.487 C 192.066 145.342,192.167 145.169,192.167 145.102 C 192.167 144.682,193.896 142.887,195.083 142.075 C 196.473 141.124,199.943 140.169,200.243 140.655 M160.875 147.647 C 159.752 148.732,158.833 149.754,158.833 149.918 C 158.833 150.201,160.869 152.255,166.803 157.962 C 168.207 159.312,170.945 161.960,172.886 163.847 C 177.021 167.865,178.398 169.164,179.083 169.691 C 179.358 169.902,179.658 170.158,179.750 170.259 C 180.564 171.152,186.245 175.000,186.751 175.000 C 186.809 175.000,186.970 175.112,187.107 175.250 C 187.245 175.387,187.493 175.500,187.658 175.500 C 187.824 175.500,188.053 175.612,188.167 175.750 C 188.281 175.887,188.485 176.000,188.620 176.000 C 188.755 176.000,189.064 176.109,189.308 176.243 C 190.087 176.672,191.307 177.167,191.582 177.167 C 191.730 177.167,192.052 177.269,192.300 177.393 C 192.547 177.518,193.072 177.670,193.466 177.730 C 193.859 177.790,194.309 177.909,194.466 177.994 C 195.960 178.803,204.463 178.707,206.553 177.857 C 206.811 177.752,207.223 177.664,207.469 177.661 C 207.715 177.658,208.062 177.546,208.240 177.411 C 208.418 177.277,208.744 177.167,208.964 177.167 C 209.185 177.167,209.564 177.058,209.808 176.926 C 210.051 176.793,210.550 176.559,210.917 176.404 C 212.835 175.598,216.369 173.733,216.472 173.473 C 216.503 173.396,216.604 173.333,216.698 173.333 C 216.845 173.333,217.170 173.104,218.118 172.331 C 218.229 172.241,218.381 172.167,218.456 172.167 C 218.531 172.167,218.710 172.035,218.854 171.875 C 218.997 171.715,219.289 171.471,219.502 171.333 C 219.714 171.196,220.010 170.971,220.160 170.833 C 220.309 170.696,220.878 170.220,221.424 169.775 C 223.648 167.964,232.333 159.498,232.333 159.141 C 232.333 158.772,227.791 154.333,227.415 154.335 C 227.206 154.336,225.299 156.095,222.250 159.101 C 216.258 165.008,215.110 166.091,214.258 166.643 C 213.887 166.883,213.523 167.175,213.450 167.290 C 213.377 167.406,213.233 167.500,213.130 167.500 C 213.027 167.500,212.820 167.612,212.669 167.748 C 212.273 168.106,209.162 169.667,208.844 169.667 C 208.695 169.667,208.426 169.770,208.245 169.896 C 208.065 170.022,207.579 170.180,207.167 170.248 C 206.754 170.316,206.294 170.437,206.144 170.515 C 204.200 171.535,194.985 171.112,192.641 169.896 C 192.398 169.770,192.072 169.667,191.917 169.667 C 191.762 169.667,191.436 169.559,191.192 169.428 C 190.949 169.296,190.112 168.879,189.333 168.502 C 188.554 168.124,187.765 167.726,187.579 167.616 C 186.696 167.096,184.055 165.267,183.833 165.022 C 183.696 164.871,183.171 164.448,182.667 164.083 C 181.703 163.385,180.525 162.270,173.857 155.750 C 171.608 153.550,168.789 150.794,167.594 149.625 C 166.398 148.456,165.400 147.500,165.376 147.500 C 165.352 147.500,164.944 147.087,164.471 146.583 C 163.297 145.334,163.256 145.346,160.875 147.647 M168.016 150.361 C 168.987 151.308,171.239 153.508,173.021 155.250 C 182.050 164.075,183.606 165.435,187.000 167.468 C 189.846 169.173,193.820 170.833,195.053 170.833 C 195.287 170.833,195.689 170.914,195.947 171.013 C 197.240 171.507,202.829 171.464,205.333 170.942 C 210.168 169.932,213.498 167.955,218.328 163.227 C 226.282 155.443,227.095 154.678,227.419 154.672 C 227.954 154.663,232.065 158.866,231.932 159.286 C 231.744 159.878,222.511 168.689,219.901 170.767 C 205.922 181.896,192.057 180.967,177.392 167.920 C 177.287 167.827,175.897 166.475,174.304 164.917 C 172.711 163.358,169.810 160.546,167.859 158.667 C 160.130 151.226,159.161 150.251,159.163 149.917 C 159.165 149.560,162.495 146.230,163.083 145.997 C 163.357 145.888,163.672 146.115,164.833 147.251 C 165.612 148.014,167.044 149.414,168.016 150.361 M194.292 184.259 C 194.002 184.559,194.242 184.916,195.606 186.214 C 196.397 186.967,197.705 188.240,198.512 189.042 C 200.226 190.745,200.274 190.756,201.394 189.671 C 207.842 183.425,207.801 183.940,201.807 184.480 C 200.472 184.600,199.194 184.551,195.750 184.248 C 195.017 184.183,194.360 184.188,194.292 184.259 M195.917 184.495 C 198.054 184.835,203.469 184.783,205.289 184.405 C 205.706 184.318,205.852 184.355,205.934 184.569 C 206.070 184.923,200.752 190.167,200.257 190.167 C 199.818 190.167,194.768 185.208,194.697 184.708 C 194.637 184.278,194.597 184.285,195.917 184.495 " stroke="none" fill="#7c7c7e" fill-rule="evenodd"></path><path id="path4" d="M198.667 101.853 C 198.346 102.047,197.960 102.328,197.810 102.477 C 197.659 102.627,196.459 103.800,195.143 105.083 C 192.607 107.556,182.304 117.631,175.202 124.583 C 172.861 126.875,170.408 129.275,169.751 129.917 C 166.232 133.352,154.865 144.496,153.313 146.030 C 150.043 149.263,149.959 150.491,152.812 153.304 C 156.528 156.967,168.835 169.026,171.656 171.768 C 173.437 173.500,175.658 175.667,176.591 176.583 C 180.033 179.967,192.824 192.491,195.145 194.750 C 196.464 196.033,197.693 197.248,197.876 197.449 C 199.406 199.124,201.518 198.627,204.224 195.956 C 205.175 195.018,209.131 191.137,213.016 187.333 C 216.900 183.529,221.292 179.217,222.774 177.750 C 224.256 176.283,226.357 174.219,227.443 173.163 C 250.310 150.918,249.667 151.592,249.667 149.889 C 249.667 149.382,249.554 148.731,249.417 148.442 C 249.185 147.955,245.340 144.128,231.749 130.858 C 230.374 129.515,227.185 126.392,224.663 123.917 C 222.140 121.442,217.089 116.492,213.437 112.917 C 209.785 109.342,205.827 105.460,204.640 104.291 C 201.726 101.419,200.331 100.849,198.667 101.853 M201.715 102.023 C 202.101 102.219,203.576 103.513,204.992 104.898 C 207.251 107.106,210.901 110.682,217.020 116.682 C 217.993 117.636,221.739 121.304,225.344 124.833 C 228.949 128.362,233.478 132.796,235.408 134.686 C 237.338 136.575,239.517 138.702,240.250 139.412 C 248.918 147.806,249.500 148.467,249.500 149.917 C 249.500 151.355,248.963 151.967,240.321 160.358 C 239.626 161.032,236.525 164.058,233.428 167.083 C 230.332 170.108,227.000 173.361,226.024 174.312 C 225.048 175.263,220.764 179.463,216.503 183.646 C 209.497 190.522,203.436 196.452,202.647 197.201 C 200.687 199.063,199.269 198.580,195.312 194.702 C 193.749 193.170,191.531 191.002,190.383 189.884 C 189.234 188.765,184.572 184.191,180.022 179.718 C 170.869 170.719,167.344 167.267,165.051 165.059 C 152.934 153.390,151.000 151.306,151.000 149.917 C 151.000 148.514,152.499 146.899,165.055 134.774 C 167.258 132.647,171.165 128.827,177.179 122.919 C 180.073 120.076,184.429 115.800,186.859 113.417 C 189.288 111.033,192.817 107.571,194.701 105.723 C 199.019 101.486,199.823 101.062,201.715 102.023 M197.280 112.271 C 194.245 115.257,194.193 115.390,196.119 115.207 C 197.826 115.044,203.115 115.049,204.545 115.213 C 205.475 115.321,205.690 115.300,205.769 115.094 C 205.899 114.755,200.721 109.665,200.253 109.672 C 200.047 109.675,198.895 110.682,197.280 112.271 M202.936 112.197 C 204.253 113.498,205.422 114.619,205.535 114.688 C 205.965 114.954,205.210 114.999,202.750 114.855 C 201.225 114.765,199.254 114.771,197.696 114.870 C 196.291 114.958,195.101 114.990,195.050 114.939 C 194.915 114.803,200.031 109.833,200.307 109.833 C 200.437 109.833,201.620 110.897,202.936 112.197 M196.083 121.661 C 192.945 122.203,188.274 123.787,187.000 124.740 C 186.862 124.843,186.412 125.105,186.000 125.323 C 183.689 126.541,180.086 129.248,177.500 131.709 C 172.425 136.540,168.167 140.831,168.167 141.115 C 168.167 141.543,171.677 145.000,172.112 145.000 C 172.322 145.000,174.208 143.271,177.264 140.277 C 183.767 133.905,185.162 132.698,187.703 131.243 C 188.823 130.601,189.200 130.209,188.143 130.785 C 185.387 132.286,184.099 133.376,177.769 139.559 C 174.847 142.414,172.332 144.772,172.180 144.799 C 171.512 144.917,167.901 140.858,168.480 140.639 C 168.560 140.608,170.792 138.474,173.438 135.896 C 178.308 131.152,178.999 130.516,180.743 129.167 C 181.276 128.754,181.946 128.227,182.231 127.995 C 182.904 127.449,184.986 126.087,186.000 125.530 C 188.263 124.287,190.386 123.329,192.083 122.785 C 197.595 121.018,205.157 121.224,209.775 123.268 C 210.064 123.395,210.351 123.500,210.412 123.500 C 210.561 123.500,214.130 125.281,214.694 125.637 C 214.938 125.791,215.500 126.136,215.944 126.405 C 219.349 128.467,221.227 130.134,231.667 140.359 C 235.104 143.725,238.648 147.193,239.542 148.065 C 240.435 148.936,241.167 149.772,241.167 149.921 C 241.167 150.206,237.205 154.157,236.917 154.160 C 236.743 154.162,235.731 153.192,226.417 144.093 C 219.052 136.899,218.275 136.167,216.601 134.853 C 212.371 131.531,208.796 129.723,204.167 128.563 C 202.363 128.111,195.776 128.104,194.167 128.552 C 190.955 129.446,188.841 130.230,189.059 130.447 C 189.114 130.502,189.254 130.477,189.371 130.391 C 189.879 130.017,192.163 129.252,194.333 128.727 C 196.166 128.285,202.018 128.290,203.917 128.737 C 210.847 130.365,215.039 133.121,223.844 141.833 C 230.796 148.713,236.590 154.261,236.869 154.306 C 237.323 154.380,241.333 150.430,241.333 149.909 C 241.333 149.562,226.704 135.053,222.250 130.983 C 219.654 128.611,215.148 125.435,213.078 124.519 C 212.892 124.437,212.329 124.169,211.828 123.924 C 210.910 123.476,210.349 123.255,208.667 122.679 C 204.906 121.391,199.961 120.991,196.083 121.661 M196.333 134.905 C 192.848 135.398,189.732 137.160,186.250 140.607 C 185.425 141.424,183.006 143.789,180.875 145.863 C 178.744 147.937,177.000 149.743,177.000 149.875 C 177.000 150.007,177.619 150.706,178.375 151.428 C 179.131 152.150,181.146 154.097,182.852 155.755 C 189.971 162.674,194.382 164.993,200.417 164.993 C 204.162 164.993,206.690 164.243,209.655 162.250 C 211.152 161.244,222.500 150.271,222.500 149.830 C 222.500 149.582,216.421 143.534,213.750 141.124 C 211.542 139.133,206.566 135.878,206.235 136.209 C 206.198 136.247,206.649 136.519,207.237 136.814 C 209.865 138.135,212.763 140.348,216.000 143.505 C 216.963 144.444,218.781 146.216,220.042 147.442 C 221.302 148.669,222.333 149.735,222.333 149.810 C 222.333 149.886,220.743 151.516,218.800 153.432 C 216.857 155.349,214.461 157.717,213.476 158.694 C 207.399 164.724,201.906 166.182,194.333 163.776 C 192.841 163.301,189.835 161.561,187.977 160.096 C 187.736 159.906,187.253 159.525,186.905 159.250 C 185.963 158.505,184.348 156.980,179.206 151.977 C 176.819 149.655,176.778 150.094,179.636 147.317 C 180.982 146.009,183.549 143.509,185.341 141.761 C 189.113 138.081,192.504 135.667,193.899 135.667 C 194.023 135.667,194.423 135.561,194.788 135.433 C 196.043 134.990,198.984 134.787,201.025 135.003 C 202.047 135.111,203.181 135.304,203.546 135.433 C 203.910 135.561,204.368 135.662,204.563 135.656 C 205.213 135.635,203.446 135.153,201.833 134.911 C 199.966 134.631,198.285 134.629,196.333 134.905 M205.240 135.922 C 205.418 136.057,205.681 136.164,205.824 136.161 C 205.990 136.157,205.934 136.069,205.667 135.917 C 205.121 135.605,204.826 135.609,205.240 135.922 M199.750 140.114 C 191.419 141.185,187.681 149.358,192.585 155.785 C 196.253 160.593,204.126 160.616,207.904 155.829 C 210.274 152.825,211.147 147.465,208.900 149.711 C 208.584 150.027,207.785 150.559,207.124 150.893 C 206.463 151.227,206.016 151.500,206.131 151.500 C 206.592 151.500,208.550 150.404,208.995 149.897 C 210.126 148.608,210.273 150.647,209.235 153.226 C 205.210 163.226,190.014 159.840,190.710 149.098 C 190.998 144.666,194.411 141.065,198.895 140.465 C 200.800 140.210,201.015 140.381,200.042 141.376 C 198.780 142.666,198.025 145.180,198.477 146.583 C 198.606 146.985,198.641 146.778,198.652 145.531 C 198.670 143.654,199.068 142.624,200.237 141.438 C 201.129 140.533,201.190 139.839,200.361 140.025 C 200.300 140.039,200.025 140.079,199.750 140.114 M163.083 145.997 C 162.495 146.230,159.165 149.560,159.163 149.917 C 159.161 150.251,160.130 151.226,167.859 158.667 C 169.810 160.546,172.711 163.358,174.304 164.917 C 186.207 176.558,195.417 180.252,206.250 177.728 C 211.756 176.445,217.581 173.115,222.850 168.238 C 226.275 165.067,231.837 159.585,231.932 159.286 C 232.065 158.866,227.954 154.663,227.419 154.672 C 227.095 154.678,226.282 155.443,218.328 163.227 C 213.498 167.955,210.168 169.932,205.333 170.942 C 202.829 171.464,197.240 171.507,195.947 171.013 C 195.689 170.914,195.287 170.833,195.053 170.833 C 193.820 170.833,189.846 169.173,187.000 167.468 C 183.606 165.435,182.050 164.075,173.021 155.250 C 171.239 153.508,168.987 151.308,168.016 150.361 C 167.044 149.414,165.612 148.014,164.833 147.251 C 163.672 146.115,163.357 145.888,163.083 145.997 M168.150 150.726 C 170.680 153.234,173.200 155.716,173.750 156.242 C 174.300 156.769,175.805 158.224,177.093 159.475 C 178.382 160.726,180.066 162.313,180.836 163.000 C 181.606 163.688,182.354 164.365,182.499 164.506 C 182.643 164.647,183.059 164.980,183.423 165.246 C 183.786 165.512,184.458 166.008,184.917 166.348 C 186.338 167.403,190.733 169.819,191.266 169.839 C 191.349 169.842,191.717 169.990,192.083 170.167 C 192.450 170.344,192.914 170.491,193.115 170.494 C 193.316 170.497,193.523 170.568,193.574 170.652 C 193.626 170.736,193.987 170.856,194.376 170.920 C 194.765 170.984,195.533 171.150,196.083 171.289 C 198.437 171.885,204.320 171.591,206.917 170.748 C 207.283 170.629,207.804 170.482,208.074 170.421 C 208.654 170.291,211.562 168.873,212.750 168.141 C 214.570 167.021,216.598 165.255,220.583 161.320 C 226.889 155.095,227.188 154.812,227.422 154.866 C 228.018 155.004,231.841 159.008,231.674 159.320 C 231.505 159.635,226.429 164.668,224.254 166.676 C 223.614 167.267,223.014 167.832,222.921 167.931 C 221.099 169.868,215.996 173.513,213.083 174.959 C 209.787 176.595,208.841 176.934,205.250 177.770 C 203.314 178.221,197.180 178.220,195.250 177.769 C 193.697 177.406,191.007 176.584,190.167 176.216 C 185.175 174.030,181.291 171.363,176.667 166.946 C 169.921 160.504,159.333 150.114,159.333 149.936 C 159.333 149.613,162.896 146.167,163.231 146.167 C 163.427 146.167,165.338 147.939,168.150 150.726 M198.674 147.333 C 198.643 149.088,201.754 151.441,204.283 151.574 L 205.750 151.651 204.417 151.489 C 201.828 151.175,200.017 149.946,199.030 147.833 C 198.837 147.421,198.677 147.196,198.674 147.333 M194.697 184.708 C 194.768 185.208,199.818 190.167,200.257 190.167 C 200.752 190.167,206.070 184.923,205.934 184.569 C 205.852 184.355,205.706 184.318,205.289 184.405 C 203.469 184.783,198.054 184.835,195.917 184.495 C 194.597 184.285,194.637 184.278,194.697 184.708 M200.250 184.917 C 201.533 184.917,203.277 184.855,204.125 184.779 C 205.442 184.662,205.667 184.678,205.667 184.890 C 205.667 185.027,205.594 185.164,205.506 185.194 C 205.417 185.225,204.268 186.319,202.952 187.625 C 201.636 188.931,200.449 190.000,200.315 190.000 C 200.030 190.000,195.000 185.127,195.000 184.851 C 195.000 184.718,195.420 184.701,196.458 184.791 C 197.260 184.860,198.967 184.917,200.250 184.917 " stroke="none" fill="#9a9a9c" fill-rule="evenodd"></path></g></svg>