<?xml version="1.0" standalone="no"?>
<!DOCTYPE svg PUBLIC "-//W3C//DTD SVG 20010904//EN"
 "http://www.w3.org/TR/2001/REC-SVG-20010904/DTD/svg10.dtd">
<svg version="1.0" xmlns="http://www.w3.org/2000/svg"
 width="624.000000pt" height="594.000000pt" viewBox="0 0 624.000000 594.000000"
 preserveAspectRatio="xMidYMid meet">
<metadata>
Created by potrace 1.10, written by Peter Selinger 2001-2011
</metadata>
<g transform="translate(0.000000,594.000000) scale(0.100000,-0.100000)"
fill="#ff0000" stroke="none">
<path d="M3027 5524 c-16 -8 -36 -23 -46 -32 -54 -52 -450 -440 -910 -892
-288 -283 -527 -517 -531 -520 -8 -5 -634 -618 -921 -900 -81 -80 -154 -159
-163 -177 -20 -41 -21 -105 0 -146 9 -18 82 -97 163 -177 317 -312 914 -895
921 -900 4 -3 241 -235 526 -516 424 -417 815 -800 915 -896 51 -49 150 -63
212 -32 18 9 100 83 182 164 83 81 173 170 202 196 28 27 286 281 573 564 287
283 526 517 530 520 8 5 630 613 921 900 80 80 154 159 163 177 21 41 21 105
0 146 -9 18 -83 97 -163 177 -286 281 -913 895 -921 900 -4 3 -241 235 -526
515 -442 435 -850 835 -915 897 -50 48 -154 64 -212 32z m242 -546 c80 -79
148 -152 149 -162 3 -17 0 -18 -40 -11 -126 21 -373 21 -530 0 -39 -6 -48 -4
-48 8 0 20 290 306 309 307 8 0 80 -64 160 -142z m78 -514 c53 -8 101 -18 107
-21 5 -4 26 -10 45 -14 37 -7 84 -23 136 -45 17 -7 48 -20 70 -29 47 -20 113
-52 135 -65 8 -5 51 -31 95 -57 189 -111 330 -231 715 -610 113 -110 246 -240
295 -288 254 -246 395 -390 395 -405 0 -27 -217 -235 -245 -235 -17 0 -127
102 -431 400 -224 220 -428 420 -453 445 -240 234 -509 413 -731 487 -180 59
-237 68 -445 67 -181 -1 -196 -3 -310 -33 -252 -67 -416 -175 -725 -476 -331
-324 -401 -390 -415 -393 -14 -3 -225 199 -225 217 0 5 6 16 14 23 7 7 103
101 213 208 421 411 473 455 713 605 63 40 229 122 263 130 15 4 30 11 33 16
3 5 14 9 24 9 11 0 34 6 52 14 37 16 146 42 228 55 94 15 342 12 447 -5z
m-158 -715 c165 -27 305 -86 474 -202 115 -78 209 -162 455 -403 170 -166 202
-202 196 -219 -4 -11 -11 -22 -15 -25 -3 -3 -138 -133 -298 -289 -160 -156
-317 -304 -348 -328 -68 -51 -191 -114 -283 -143 -122 -38 -384 -38 -510 2
-176 55 -356 161 -524 308 -137 121 -486 467 -486 483 0 18 545 558 625 618
17 13 32 26 35 29 26 28 167 104 252 136 100 37 304 53 427 33z m-1897 -773
c95 -93 256 -251 358 -350 432 -423 540 -518 700 -622 157 -101 340 -177 515
-216 90 -20 441 -17 525 4 36 9 85 22 110 28 73 17 279 125 371 194 47 36 222
199 388 363 166 164 310 300 318 301 19 5 253 -226 253 -248 0 -9 -19 -35 -42
-59 -95 -96 -466 -452 -513 -491 -27 -23 -61 -52 -75 -63 -14 -12 -41 -33 -60
-46 -19 -13 -37 -27 -40 -31 -10 -14 -180 -121 -262 -164 -188 -99 -361 -156
-553 -182 -166 -22 -329 -13 -515 30 -197 45 -436 162 -646 317 -135 99 -217
172 -434 384 -107 105 -233 227 -280 271 -212 199 -530 519 -530 533 0 23 202
222 222 219 9 -2 95 -79 190 -172z m1691 -1929 c97 -8 158 -8 260 2 72 6 143
13 156 14 13 1 26 -3 28 -9 5 -14 -291 -307 -314 -312 -13 -3 -292 258 -317
297 -11 18 12 33 39 25 11 -3 77 -10 148 -17z"/>
<path d="M3010 3439 c-48 -8 -128 -42 -196 -82 -72 -43 -149 -139 -191 -239
-24 -56 -27 -76 -27 -178 0 -87 4 -127 18 -165 17 -46 75 -144 102 -172 7 -7
14 -16 16 -20 4 -11 75 -64 118 -90 138 -83 382 -83 520 0 43 26 114 79 118
90 2 4 10 13 17 21 27 27 82 123 99 171 23 67 32 170 17 179 -7 5 -20 -3 -32
-18 -11 -14 -49 -42 -83 -61 -60 -33 -67 -35 -162 -35 -92 0 -103 2 -152 31
-103 58 -158 132 -182 242 -22 95 14 211 86 283 19 19 34 39 34 44 0 12 -44
11 -120 -1z"/>
</g>
</svg>
