<svg>
<path xmlns="http://www.w3.org/2000/svg" fill-rule="evenodd" fill="#3d3d3f" stroke="none" d="M199.043 102.162C198.653 102.338 197.863 102.956 197.286 103.533 196.709 104.111 193.776 106.983 190.768 109.917 187.76 112.85 184.283 116.244 183.041 117.458 181.799 118.673 180.719 119.667 180.641 119.667 180.564 119.667 180.5 119.733 180.5 119.814 180.5 119.895 179.818 120.627 178.985 121.439 178.152 122.252 175.546 124.814 173.194 127.133 170.841 129.453 167.276 132.94 165.271 134.883 155.061 144.776 151.667 148.149 151.667 148.4 151.667 148.524 151.554 148.719 151.417 148.833 151.252 148.97 151.167 149.341 151.167 149.917 151.167 150.492 151.252 150.864 151.417 151 151.554 151.114 151.667 151.306 151.667 151.427 151.667 151.666 154.255 154.269 160.52 160.333 164.662 164.343 169.717 169.286 174.666 174.167 176.2 175.679 178.14 177.577 178.977 178.385 179.815 179.193 180.5 179.924 180.5 180.01 180.5 180.096 180.566 180.167 180.647 180.167 180.728 180.167 181.954 181.31 183.372 182.708 184.79 184.106 188.266 187.5 191.096 190.25 193.927 193 196.713 195.723 197.289 196.3 198.908 197.925 200.087 198.318 201.478 197.695 202.119 197.408 202.987 196.617 207.086 192.583 208.018 191.667 210.854 188.892 213.39 186.417 215.925 183.942 220.168 179.779 222.818 177.167 227.983 172.075 237.164 163.099 240.389 159.987 248.313 152.342 249.333 151.193 249.333 149.917 249.333 148.564 249.001 148.198 238.735 138.25 234.344 133.996 229.227 128.986 222.817 122.667 218.665 118.573 214.264 114.264 207.072 107.25 206.133 106.333 204.639 104.875 203.754 104.01 201.534 101.84 200.578 101.465 199.043 102.162M201.372 110.125C207.184 115.677 207.298 115.904 204.014 115.409 201.946 115.098 198.858 115.101 196.603 115.418 194.163 115.76 193.523 115.333 194.893 114.274 195.181 114.052 196.429 112.854 197.667 111.612 200.215 109.055 200.241 109.045 201.372 110.125M205.333 121.557C207.058 121.915 208.553 122.336 208.742 122.516 208.829 122.599 209.058 122.667 209.251 122.667 209.445 122.667 209.749 122.777 209.926 122.911 210.104 123.046 210.362 123.161 210.5 123.167 210.637 123.173 211.05 123.323 211.417 123.5 211.783 123.677 212.168 123.825 212.271 123.828 212.375 123.831 212.553 123.946 212.667 124.083 212.781 124.221 213.017 124.333 213.192 124.333 213.367 124.333 213.554 124.446 213.606 124.583 213.659 124.721 213.834 124.833 213.995 124.833 214.157 124.833 214.467 124.971 214.686 125.138 214.904 125.306 215.196 125.493 215.333 125.554 215.62 125.681 215.9 125.858 217.075 126.653 218.425 127.567 218.911 127.91 219 128.012 219.046 128.064 219.678 128.572 220.404 129.142 221.916 130.327 224.922 133.158 230.253 138.417 232.297 140.433 235.701 143.762 237.818 145.813 240.527 148.439 241.667 149.651 241.667 149.908 241.667 150.155 240.952 150.974 239.439 152.46 237.081 154.776 236.863 154.89 236.146 154.184 233.875 151.948 221.797 140.15 220.5 138.901 218.709 137.175 215.665 134.552 214.864 134.042 214.618 133.886 214.379 133.718 214.333 133.671 214.113 133.44 213.162 132.833 213.021 132.833 212.933 132.833 212.836 132.774 212.806 132.702 212.703 132.459 209.967 130.952 208.917 130.56 202.547 128.18 198.452 127.925 192.167 129.517 191.754 129.622 191.218 129.811 190.974 129.937 190.731 130.063 190.421 130.167 190.286 130.167 190.151 130.167 189.947 130.279 189.833 130.417 189.719 130.554 189.478 130.667 189.298 130.667 189.117 130.667 188.779 130.817 188.545 131 188.312 131.183 188.019 131.333 187.894 131.333 187.769 131.333 187.667 131.408 187.667 131.5 187.667 131.592 187.562 131.667 187.435 131.667 186.983 131.667 183.549 134.487 181.224 136.769 175.467 142.417 172.454 145.254 172.161 145.303 171.668 145.384 168 141.677 168 141.097 168 140.754 168.41 140.257 169.84 138.869 170.852 137.887 172.828 135.958 174.232 134.583 177.877 131.012 179.633 129.404 180.917 128.461 181.008 128.393 181.308 128.163 181.583 127.948 182.277 127.406 184.315 126 184.408 126 184.449 126 184.813 125.778 185.216 125.506 185.618 125.234 186.128 124.934 186.349 124.84 186.57 124.745 186.862 124.598 187 124.513 187.536 124.181 189.803 123.166 190.02 123.161 190.147 123.158 190.396 123.046 190.574 122.911 190.751 122.777 191.055 122.667 191.249 122.667 191.442 122.667 191.671 122.599 191.758 122.516 191.975 122.31 193.789 121.845 195.491 121.559 196.266 121.429 196.94 121.283 196.989 121.233 197.187 121.035 204.114 121.304 205.333 121.557M200.917 134.505C201.375 134.587 202.23 134.732 202.818 134.828 203.405 134.924 203.968 135.068 204.068 135.149 204.168 135.229 204.512 135.35 204.833 135.417 205.154 135.484 205.604 135.634 205.833 135.75 206.063 135.866 206.887 136.275 207.667 136.659 209.683 137.653 209.658 137.637 211.881 139.356 215.043 141.802 222.667 149.198 222.667 149.821 222.667 150.209 221.935 150.963 214.647 158.092 209.504 163.123 207.034 164.589 202.833 165.105 200.599 165.379 196.49 165.123 195.917 164.674 195.825 164.602 195.46 164.491 195.104 164.427 194.749 164.363 194.337 164.246 194.188 164.168 194.039 164.089 193.19 163.687 192.303 163.273 188.84 161.661 186.901 160.066 178.958 152.298 176.298 149.696 176.312 149.928 178.678 147.667 179.685 146.704 182.007 144.444 183.838 142.645 185.669 140.845 187.524 139.089 187.959 138.742 188.394 138.395 188.827 138.03 188.921 137.931 189.162 137.675 189.674 137.354 190.208 137.124 190.46 137.016 190.667 136.873 190.667 136.807 190.667 136.633 192.993 135.526 193.626 135.4 193.924 135.34 194.167 135.231 194.167 135.156 194.167 135.081 194.523 134.972 194.958 134.913 195.394 134.853 196.237 134.705 196.833 134.583 198.089 134.325 199.726 134.294 200.917 134.505M198.401 140.748C196.605 141.138 195.316 141.784 193.917 142.993 193.248 143.571 192.167 144.874 192.167 145.102 192.167 145.169 192.066 145.342 191.942 145.487 190.167 147.565 190.866 154.054 193.034 155.634 193.199 155.754 193.336 155.942 193.34 156.051 193.346 156.237 193.95 156.728 195.292 157.637 198.458 159.781 204.158 159.18 206.833 156.419 207.063 156.183 207.419 155.828 207.625 155.631 207.831 155.434 208 155.216 208 155.145 208 155.074 208.208 154.694 208.462 154.3 209.635 152.483 210.166 148.849 209.069 150.154 208.831 150.436 208.531 150.667 208.402 150.667 208.272 150.667 208.167 150.74 208.167 150.83 208.167 150.92 207.96 151.043 207.708 151.103 207.456 151.162 207.112 151.332 206.943 151.479 206.381 151.968 202.968 151.837 201.906 151.286 199.755 150.168 198.014 147.599 198.002 145.526 197.996 144.328 199.21 141.601 199.995 141.051 200.766 140.512 200.083 140.382 198.401 140.748M164.471 146.583C164.944 147.087 165.352 147.5 165.376 147.5 165.4 147.5 166.398 148.456 167.594 149.625 168.789 150.794 171.608 153.55 173.857 155.75 180.525 162.27 181.703 163.385 182.667 164.083 183.171 164.448 183.696 164.871 183.833 165.022 184.055 165.267 186.696 167.096 187.579 167.616 187.765 167.726 188.554 168.124 189.333 168.502 190.112 168.879 190.949 169.296 191.192 169.428 191.436 169.559 191.762 169.667 191.917 169.667 192.072 169.667 192.398 169.77 192.641 169.896 194.985 171.112 204.2 171.535 206.144 170.515 206.294 170.437 206.754 170.316 207.167 170.248 207.579 170.18 208.065 170.022 208.245 169.896 208.426 169.77 208.695 169.667 208.844 169.667 209.162 169.667 212.273 168.106 212.669 167.748 212.82 167.612 213.027 167.5 213.13 167.5 213.233 167.5 213.377 167.406 213.45 167.29 213.523 167.175 213.887 166.883 214.258 166.643 215.11 166.091 216.258 165.008 222.25 159.101 225.299 156.095 227.206 154.336 227.415 154.335 227.791 154.333 232.333 158.772 232.333 159.141 232.333 159.498 223.648 167.964 221.424 169.775 220.878 170.22 220.309 170.696 220.16 170.833 220.01 170.971 219.714 171.196 219.502 171.333 219.289 171.471 218.997 171.715 218.854 171.875 218.71 172.035 218.531 172.167 218.456 172.167 218.381 172.167 218.229 172.241 218.118 172.331 217.17 173.104 216.845 173.333 216.698 173.333 216.604 173.333 216.503 173.396 216.472 173.473 216.369 173.733 212.835 175.598 210.917 176.404 210.55 176.559 210.051 176.793 209.808 176.926 209.564 177.058 209.185 177.167 208.964 177.167 208.744 177.167 208.418 177.277 208.24 177.411 208.062 177.546 207.715 177.658 207.469 177.661 207.223 177.664 206.811 177.752 206.553 177.857 204.463 178.707 195.96 178.803 194.466 177.994 194.309 177.909 193.859 177.79 193.466 177.73 193.072 177.67 192.547 177.518 192.3 177.393 192.052 177.269 191.73 177.167 191.582 177.167 191.307 177.167 190.087 176.672 189.308 176.243 189.064 176.109 188.755 176 188.62 176 188.485 176 188.281 175.887 188.167 175.75 188.053 175.612 187.824 175.5 187.658 175.5 187.493 175.5 187.245 175.387 187.107 175.25 186.97 175.112 186.809 175 186.751 175 186.245 175 180.564 171.152 179.75 170.259 179.658 170.158 179.358 169.902 179.083 169.691 178.398 169.164 177.021 167.865 172.886 163.847 170.945 161.96 168.207 159.312 166.803 157.962 160.869 152.255 158.833 150.201 158.833 149.918 158.833 149.502 162.824 145.675 163.263 145.67 163.47 145.668 163.955 146.035 164.471 146.583M198.724 184.488C199.626 184.555 201.014 184.551 201.807 184.48 207.801 183.94 207.842 183.425 201.394 189.671 200.274 190.756 200.226 190.745 198.512 189.042 197.705 188.24 196.397 186.967 195.606 186.214 193.646 184.349 193.667 184.064 195.75 184.248 196.483 184.312 197.822 184.42 198.724 184.488" id="path2"/></svg>