<svg xmlns="http://www.w3.org/2000/svg" version="1" width="700" height="700" viewBox="0 0 700 700" preserveAspectRatio="xMidYMid meet"><metadata>
Created by potrace 1.12, written by Peter Selinger 2001-2015
</metadata><g transform="translate(0.000000,700.000000) scale(0.100000,-0.100000)" fill="#000000" stroke="none"><path d="M3469 5243c-13-27-295-520-407-713-30-52-89-156-132-230-43-74-102-178-132-230-31-52-106-183-168-290-62-107-170-294-240-415-318-548-562-970-670-1160-34-60-71-122-82-137-18-26-17-33 5-29 4 1 65 10 135 21 116 17 535 83 1032 161 107 17 250 38 318 47 68 9 123 21 123 26 0 4-28 19-63 31-35 13-124 48-198 80-74 31-205 85-290 120-221 90-272 114-268 123 1 4 18 46 37 93 18 46 39 98 46 114 8 17 39 93 70 170 30 77 60 149 65 160 6 11 34 81 64 155 48 121 106 264 251 620 89 218 217 535 235 580 50 126 223 547 259 629 45 105 44 101 33 101-5 0-15-12-23-27zM3552 5083c-11-32-70-186-132-343-119-306-156-402-299-775-50-132-102-264-116-293-14-29-25-55-25-57 0-15 29 2 103 62 46 38 164 129 262 203 98 74 201 153 229 176 28 22 67 52 87 67l36 27 79-102c43-56 97-125 119-154 52-67 311-398 535-682 96-123 184-236 195-252 11-16 112-146 225-290 259-331 550-708 571-740 9-14 20-22 24-18 4 3-27 62-68 130-105 174-168 281-219 373-25 44-78 136-118 205-40 69-131 226-202 350-71 124-134 232-139 240-5 8-39 67-75 130-37 63-125 216-197 340-71 124-162 281-202 350-62 109-123 214-393 680-86 149-203 351-226 392-12 21-24 38-28 38-3 0-15-26-26-57zM4260 3177c0-2 9-68 20-148 11-79 32-229 45-334 14-104 32-235 40-290 7-55 10-104 5-109-4-4-70-17-147-27-76-10-217-30-313-43-96-14-258-36-360-50-102-14-232-32-290-41-58-8-188-27-290-41-102-13-250-34-330-45-80-12-190-27-245-34-55-7-165-22-245-34-240-34-533-71-562-71-16 0-28-4-28-10 0-13 3726-14 3735-1 3 5 1 12-4 15-5 4-99 118-207 254-109 136-232 288-274 339-41 51-121 150-178 220-56 70-152 189-213 263-61 74-118 147-127 163-13 22-32 36-32 24z"/></g></svg>